<?xml version="1.0" standalone="no"?>
<!DOCTYPE svg PUBLIC "-//W3C//DTD SVG 20010904//EN"
 "http://www.w3.org/TR/2001/REC-SVG-20010904/DTD/svg10.dtd">
<svg version="1.0" xmlns="http://www.w3.org/2000/svg"
 width="1280.000000pt" height="640.000000pt" viewBox="0 0 1280.000000 640.000000"
 preserveAspectRatio="xMidYMid meet">
<metadata>
Created by potrace 1.15, written by Peter Selinger 2001-2017
</metadata>
<g transform="translate(0.000000,640.000000) scale(0.100000,-0.100000)"
fill="#000000" stroke="none">
<path d="M12259 5973 c-1 -5 -1 -17 0 -28 1 -19 0 -19 -15 3 -21 29 -34 28
-34 -2 0 -16 -7 -26 -21 -29 -19 -5 -21 -11 -15 -42 10 -51 -1 -60 -36 -30
-43 37 -57 20 -36 -42 20 -59 33 -189 19 -197 -24 -16 -97 -17 -116 -3 -18 14
-21 30 -25 142 -5 119 -7 128 -29 146 -43 35 -50 22 -35 -68 3 -24 4 -43 2
-43 -10 0 -74 34 -97 52 -26 20 -58 23 -81 8 -13 -9 -11 -13 10 -30 59 -47 70
-59 70 -75 0 -12 -6 -15 -20 -11 -11 3 -29 9 -40 12 -30 8 -26 -30 5 -54 30
-24 31 -32 5 -32 -23 0 -24 -4 -10 -31 7 -11 22 -19 38 -20 26 0 26 -1 5 -9
-13 -5 -23 -16 -23 -25 0 -26 -31 -17 -66 20 -34 37 -64 46 -64 20 0 -31 30
-73 67 -96 21 -12 40 -24 42 -26 3 -2 -4 -10 -15 -18 -19 -15 -19 -15 1 -31
16 -13 33 -14 85 -9 36 4 99 9 140 11 89 4 146 27 166 67 9 16 18 26 21 23 5
-5 -11 -32 -63 -104 -23 -31 -8 -43 39 -33 l37 9 0 -37 c0 -20 3 -53 6 -73 6
-34 3 -41 -48 -95 -31 -32 -61 -68 -67 -80 -6 -13 -18 -23 -26 -23 -7 0 -16
-8 -19 -18 -5 -14 -14 -17 -35 -14 -22 3 -32 -1 -40 -17 -28 -52 -218 -128
-458 -181 -110 -25 -193 -50 -232 -70 -33 -16 -74 -30 -91 -30 -30 0 -30 1
-24 40 5 32 3 41 -10 46 -20 8 -60 -27 -82 -68 -18 -35 -18 -109 0 -153 9 -21
12 -44 7 -62 l-8 -28 -149 0 c-115 0 -165 -4 -221 -19 -68 -18 -74 -19 -125
-3 -58 19 -196 24 -295 12 -64 -8 -122 2 -191 30 l-34 15 45 50 c43 47 56 75
71 141 5 23 17 30 90 53 46 14 99 26 117 26 24 0 41 9 70 39 74 79 60 139 -39
166 -133 37 -276 85 -288 97 -3 3 11 18 30 33 l36 27 51 -21 c52 -23 80 -21
112 7 27 24 20 38 -23 51 -46 13 -45 13 -24 46 17 27 16 76 -3 83 -7 2 -18 -8
-24 -22 -18 -38 -29 -32 -18 9 15 55 8 100 -15 100 -16 0 -22 -11 -31 -60 -13
-68 -26 -98 -64 -138 -48 -52 -63 -50 -22 3 39 50 56 107 29 97 -7 -2 -18 9
-25 25 -12 28 -38 46 -50 34 -4 -4 -1 -22 6 -42 12 -33 11 -38 -13 -72 -14
-20 -39 -53 -55 -72 l-29 -35 -36 34 c-30 30 -36 42 -36 78 0 65 28 109 123
196 91 83 110 113 83 132 -9 7 -16 20 -16 29 0 9 -9 25 -21 37 -16 16 -23 18
-34 9 -12 -10 -11 -18 1 -52 16 -46 12 -67 -16 -93 -18 -17 -19 -16 -26 9 -3
15 -1 70 6 122 9 68 10 98 2 106 -21 21 -39 0 -45 -51 -9 -72 -17 -80 -39 -37
-22 43 -38 39 -38 -8 0 -22 10 -46 30 -71 39 -49 42 -105 6 -105 -14 0 -38 11
-54 25 -27 22 -29 30 -25 66 6 39 5 41 -16 34 -15 -5 -21 -2 -21 9 0 9 -4 16
-8 16 -18 0 -32 -26 -32 -62 0 -40 -33 -118 -50 -118 -12 0 -44 62 -61 119
-14 46 -35 63 -50 40 -8 -13 -6 -36 7 -80 3 -11 -3 -18 -16 -22 -18 -5 -20 -9
-10 -26 6 -12 15 -21 20 -21 4 0 32 -23 62 -50 30 -29 69 -55 91 -60 42 -12
45 -22 24 -111 -9 -34 -10 -65 -5 -79 15 -41 -1 -34 -20 8 -14 32 -21 39 -30
30 -21 -21 -13 -66 16 -99 24 -27 37 -33 93 -38 l64 -7 -36 -35 c-38 -37 -94
-59 -148 -59 -49 0 -127 38 -156 76 -29 38 -55 43 -110 19 -33 -13 -44 -12
-178 25 -137 38 -209 61 -348 114 -122 46 -319 54 -481 20 -23 -5 -28 -1 -45
38 -38 85 -77 88 -100 7 -15 -49 -9 -97 18 -151 13 -25 19 -59 19 -102 0 -77
31 -142 117 -249 30 -38 53 -70 51 -71 -4 -4 -156 -33 -238 -46 -262 -39 -537
-53 -527 -27 23 61 57 184 57 208 0 21 -12 43 -43 77 -39 42 -45 56 -60 134
-9 48 -17 93 -17 101 0 8 35 33 79 56 88 46 121 79 121 122 0 38 -22 57 -78
64 -26 4 -78 15 -117 25 -38 10 -91 21 -117 25 l-46 7 57 57 c55 55 111 147
111 182 0 22 -26 43 -44 36 -8 -3 -17 -19 -21 -36 -12 -58 -25 -43 -25 28 0
69 -1 71 -25 71 -21 0 -25 -5 -25 -29 0 -16 -5 -42 -11 -58 l-12 -28 -9 33
c-12 44 -23 40 -38 -13 -7 -25 -16 -45 -20 -45 -3 0 -11 17 -16 38 -5 22 -15
37 -24 37 -12 0 -16 -21 -18 -115 -3 -126 -8 -137 -72 -170 -42 -21 -127 -40
-181 -40 -44 0 -46 3 -64 89 -11 57 -36 77 -43 36 -2 -11 -10 -25 -17 -30 -7
-6 -20 -27 -28 -48 -9 -20 -21 -37 -26 -37 -16 0 -13 46 4 60 8 7 15 21 15 32
0 16 -5 18 -34 12 l-34 -6 5 41 c5 33 3 41 -10 41 -35 0 -50 -45 -45 -133 l6
-82 -19 64 c-20 70 -31 87 -49 76 -12 -7 -7 -122 7 -169 4 -16 2 -18 -18 -12
-57 16 -79 18 -79 8 0 -21 83 -107 113 -118 41 -15 42 -23 12 -64 -38 -51 -9
-51 66 -1 34 23 70 41 80 41 17 0 17 -2 -2 -35 -12 -19 -18 -42 -15 -50 5 -14
9 -14 34 -1 16 8 36 26 45 40 9 14 36 34 60 44 24 11 67 40 96 66 54 48 67 52
85 23 12 -19 -7 -130 -29 -163 -11 -18 -11 -22 6 -32 38 -24 23 -50 -48 -82
-61 -28 -68 -29 -84 -14 -22 20 -75 7 -126 -32 -35 -26 -37 -27 -147 -21 -61
3 -199 17 -306 31 -107 14 -229 26 -271 26 l-76 0 -12 58 c-14 64 -35 102 -55
102 -22 0 -43 -33 -49 -75 -3 -22 -17 -93 -31 -158 -14 -64 -26 -134 -26 -155
0 -42 50 -188 82 -240 l20 -33 -26 -34 c-33 -43 -83 -82 -116 -89 -14 -4 -56
-11 -95 -16 -38 -5 -80 -12 -91 -15 -18 -6 -24 -1 -33 26 -20 57 -15 79 23 94
46 20 66 50 66 103 0 35 -6 49 -29 73 -16 16 -37 29 -45 29 -21 0 -20 18 5 74
14 32 18 57 14 76 -11 51 -37 37 -74 -37 l-34 -68 -13 40 c-8 22 -19 50 -25
61 -12 24 1 49 79 144 45 56 49 73 14 78 -18 3 -21 11 -24 60 -3 53 -5 57 -28
57 -23 0 -25 -4 -30 -62 -6 -71 -15 -88 -25 -44 -6 30 -35 44 -35 19 -2 -64
-25 -171 -46 -217 l-27 -56 -7 38 c-8 42 -1 90 24 156 16 44 16 45 -9 81 -14
20 -25 43 -25 51 0 18 -31 49 -47 49 -14 0 -23 -34 -23 -87 0 -37 -2 -41 -21
-36 -12 3 -25 0 -29 -7 -6 -9 -12 -6 -25 14 -18 26 -73 66 -94 66 -6 0 -11
-15 -11 -34 0 -39 30 -86 107 -170 59 -64 73 -90 73 -139 0 -40 -3 -43 -72
-95 -87 -64 -103 -70 -136 -45 l-27 21 3 118 3 118 -28 22 c-45 37 -53 31 -53
-36 l0 -60 -30 0 c-28 0 -30 2 -30 40 0 48 -11 51 -40 10 -23 -32 -49 -37 -95
-20 l-27 10 26 21 c14 11 40 40 57 65 16 24 35 44 42 44 7 0 19 5 27 10 13 8
11 12 -7 30 -12 11 -27 20 -32 20 -14 0 -27 27 -36 75 -14 78 -49 115 -88 93
-17 -9 -14 -32 9 -59 15 -17 9 -109 -10 -134 -10 -14 -16 -14 -56 2 -25 9 -53
23 -62 31 -20 16 -48 9 -74 -19 -16 -18 -16 -24 -5 -52 39 -98 33 -111 -34
-72 -53 32 -67 27 -54 -17 11 -40 8 -43 -28 -25 -35 19 -59 44 -72 79 -8 23
-5 37 23 90 61 115 70 214 25 286 -15 27 -25 33 -47 30 -25 -3 -27 -7 -27 -47
0 -52 -14 -61 -51 -32 -34 27 -44 26 -44 -3 0 -13 -7 -26 -15 -30 -30 -11 -15
-45 40 -91 57 -50 69 -71 34 -62 -16 4 -25 -2 -37 -24 -10 -16 -20 -29 -24
-29 -4 0 -15 27 -24 60 -19 69 -28 78 -53 56 -16 -15 -19 -14 -41 9 -33 35
-46 31 -54 -14 -8 -51 -1 -66 40 -92 32 -19 84 -77 84 -92 0 -18 -51 -4 -94
26 -76 51 -107 66 -122 60 -23 -9 -16 -40 16 -66 17 -14 30 -30 30 -35 0 -13
-25 -22 -61 -22 -37 0 -70 -44 -48 -64 11 -11 33 -10 119 5 58 10 130 18 161
18 47 1 59 -3 80 -25 13 -15 43 -35 67 -45 24 -11 53 -26 65 -34 21 -14 21
-15 -11 -26 -38 -13 -50 -46 -32 -90 12 -28 16 -30 44 -23 17 4 54 8 83 10
l52 3 7 -36 c11 -58 -2 -183 -26 -246 -25 -65 -59 -111 -101 -133 -16 -8 -36
-28 -44 -44 -11 -22 -22 -29 -43 -28 -15 0 -63 -13 -107 -29 -67 -25 -100 -31
-205 -36 -162 -8 -281 -30 -335 -62 -63 -36 -81 -33 -113 20 -45 76 -64 70
-82 -25 -6 -30 -13 -60 -15 -66 -2 -7 -30 -26 -62 -44 -91 -52 -150 -98 -173
-136 -12 -19 -36 -42 -53 -51 -18 -8 -53 -35 -79 -59 -54 -50 -90 -56 -132
-23 -33 26 -146 255 -146 296 0 32 -61 113 -86 113 -7 0 -44 -30 -81 -67 -38
-38 -87 -80 -109 -95 -50 -32 -82 -105 -90 -207 -12 -142 -42 -168 -82 -71
-17 42 -21 66 -16 100 8 62 7 78 -5 134 -13 56 -34 94 -59 103 -9 3 -38 26
-63 50 l-46 44 -97 -16 c-161 -26 -240 -61 -323 -145 -48 -49 -83 -116 -83
-158 0 -29 26 -62 48 -62 23 0 44 48 40 91 -3 41 -1 43 30 52 25 8 41 6 72 -8
22 -10 46 -25 53 -33 10 -12 6 -12 -21 2 -18 9 -37 14 -42 11 -14 -9 -12 -46
4 -78 14 -25 12 -32 -18 -100 -19 -39 -42 -80 -53 -89 -18 -17 -20 -15 -59 60
l-41 77 -91 45 c-117 58 -121 65 -81 172 60 168 76 185 178 207 30 6 61 16 68
23 61 50 -105 177 -244 186 -109 7 -130 -36 -67 -139 27 -42 35 -65 30 -83 -8
-34 -46 -120 -50 -115 -2 2 -16 74 -31 159 -14 85 -33 165 -41 178 -22 33 -48
24 -54 -18 -4 -28 -9 -34 -25 -32 -219 31 -227 33 -238 67 -12 37 -26 46 -49
34 -22 -12 -23 -46 -4 -141 l13 -67 -31 -29 c-17 -16 -41 -35 -52 -41 -20 -10
-22 -8 -29 37 -4 26 -13 59 -21 73 -26 50 -161 81 -158 36 2 -14 -4 -18 -25
-17 -49 4 -60 0 -94 -30 -49 -43 -73 -151 -46 -202 8 -16 8 -24 -4 -35 -12
-12 -15 -7 -25 43 -7 32 -12 68 -12 81 0 13 -4 23 -9 23 -15 0 -51 -56 -51
-78 0 -12 -4 -24 -10 -27 -11 -7 -105 -24 -159 -30 -41 -4 -96 -55 -112 -103
-10 -30 -9 -38 11 -64 21 -28 22 -37 16 -117 -5 -61 -13 -92 -25 -106 -10 -11
-22 -28 -27 -37 -9 -16 -15 -13 -58 22 -48 40 -109 61 -127 43 -7 -7 4 -37 30
-87 45 -85 50 -113 23 -146 l-18 -22 -36 78 c-37 83 -72 134 -83 122 -4 -3 10
-40 31 -82 20 -42 34 -79 31 -82 -11 -11 -47 36 -47 62 0 34 -17 64 -37 64
-22 0 -14 -80 37 -345 22 -115 43 -247 47 -291 5 -77 5 -82 -15 -88 -12 -4
-30 -19 -41 -33 -19 -23 -20 -39 -20 -222 1 -191 2 -198 31 -283 19 -54 36
-88 44 -88 19 0 18 16 -6 94 l-21 66 22 91 c22 88 22 92 5 124 -15 28 -17 45
-9 120 10 106 27 121 43 38 20 -105 49 -189 72 -211 13 -11 40 -38 61 -59 l38
-38 40 48 c55 64 80 64 114 -3 50 -98 78 -76 69 53 l-7 87 29 0 c16 0 56 -14
89 -30 33 -17 70 -30 82 -30 12 0 48 -10 80 -22 32 -12 63 -21 70 -20 6 1 14
-2 18 -8 3 -5 22 -10 41 -10 44 0 43 -4 -26 -145 -67 -137 -71 -143 -104 -126
-21 11 -28 12 -41 1 -32 -27 -11 -137 37 -187 27 -29 45 -29 77 0 15 13 42 28
62 34 36 10 37 10 43 -20 7 -33 32 -67 51 -67 15 0 80 69 98 105 53 106 108
262 118 332 11 82 25 105 59 96 25 -7 25 -12 3 -29 -30 -21 -5 -29 45 -15 26
8 71 19 101 26 45 9 55 16 66 41 10 23 10 34 -2 57 -16 31 -10 33 40 12 57
-23 85 -19 105 14 11 19 27 32 47 35 17 4 47 23 68 44 77 79 85 165 21 222
-19 16 -47 32 -62 36 -15 3 -35 8 -44 10 -18 5 -43 68 -33 84 3 6 24 19 45 30
21 11 61 42 87 68 27 27 55 51 63 54 12 4 11 9 -4 32 l-18 28 -40 -38 c-22
-22 -36 -30 -30 -19 5 11 33 42 61 68 50 47 51 50 51 106 0 59 11 81 41 81 26
0 68 -81 92 -177 22 -88 22 -85 -10 -195 -9 -29 15 -20 32 12 9 17 19 30 24
30 16 0 54 -105 55 -150 0 -25 -4 -72 -8 -105 -10 -67 5 -68 28 0 l13 37 68
-79 c94 -107 186 -233 179 -244 -3 -5 -41 -9 -85 -9 -69 0 -84 3 -122 28 -65
41 -140 129 -167 197 -25 65 -36 82 -46 72 -4 -3 6 -41 22 -84 24 -68 37 -87
102 -151 40 -41 72 -75 70 -76 -15 -13 -81 -26 -127 -26 -74 0 -128 -16 -158
-46 -33 -33 -21 -43 23 -19 l36 19 19 -24 c24 -32 43 -123 35 -171 -14 -86
-45 -110 -86 -69 -28 28 -25 46 10 60 35 15 45 39 29 73 -14 30 -38 42 -53 27
-16 -16 -26 -12 -26 10 0 15 -9 22 -30 27 -17 3 -44 21 -61 41 -31 35 -34 36
-115 40 -88 5 -139 -2 -129 -18 3 -6 30 -10 60 -10 30 0 67 -5 82 -12 44 -18
103 -79 103 -106 0 -12 6 -35 14 -50 7 -15 19 -70 26 -122 7 -52 17 -106 23
-120 30 -79 35 -119 21 -161 -8 -23 -12 -54 -9 -68 3 -14 -4 -62 -15 -105 -11
-44 -20 -110 -20 -147 0 -63 -2 -69 -23 -74 -16 -4 -49 6 -99 29 -41 20 -80
36 -86 36 -7 0 -12 9 -12 20 0 12 -14 29 -35 42 -19 13 -39 37 -46 53 -6 17
-15 38 -20 47 -12 23 -12 65 1 73 5 3 10 16 10 29 0 13 9 31 21 42 12 10 31
39 44 64 35 69 103 154 128 161 33 9 47 0 47 -30 l1 -26 24 28 c27 31 31 62
14 101 -15 32 -31 38 -69 24 -28 -9 -33 -8 -46 11 -20 27 -34 18 -34 -21 0
-25 -3 -29 -17 -23 -36 14 -48 11 -48 -15 0 -14 -4 -28 -9 -31 -12 -9 -37 -76
-43 -116 -3 -17 -13 -40 -23 -50 -9 -11 -20 -35 -24 -54 -9 -51 -59 -124 -105
-156 -22 -16 -43 -36 -46 -45 -4 -12 -17 -18 -34 -18 -16 0 -39 -9 -53 -19
-56 -44 -209 -90 -283 -85 -27 1 -55 -2 -61 -7 -13 -10 -83 28 -84 46 0 6 -18
18 -40 28 -22 10 -40 25 -40 33 0 8 -4 14 -10 14 -5 0 -10 6 -10 14 0 8 -17
33 -37 56 l-38 41 -60 -6 c-33 -4 -65 -11 -71 -16 -5 -4 -19 -6 -31 -3 -11 3
-24 1 -27 -5 -4 -6 -20 -8 -37 -4 -23 4 -36 1 -52 -16 -12 -12 -35 -33 -50
-46 l-28 -25 -42 22 c-71 36 -78 39 -87 33 -6 -4 -10 -21 -10 -40 0 -29 4 -35
35 -45 23 -8 76 -52 153 -129 64 -65 149 -139 187 -166 39 -27 72 -50 74 -51
2 -2 -6 -18 -18 -37 -11 -19 -21 -39 -21 -46 0 -21 36 -11 65 19 19 19 39 30
57 30 15 0 28 -2 28 -3 0 -2 -9 -30 -20 -62 -11 -32 -20 -66 -20 -77 0 -24 38
-24 56 0 13 16 13 16 14 -3 0 -27 14 -9 35 48 10 26 23 46 29 43 6 -3 63 -22
126 -43 95 -31 109 -39 82 -41 -18 -2 -38 -11 -44 -22 -6 -10 -18 -16 -25 -13
-11 4 -11 9 3 24 16 18 15 19 -12 29 -38 15 -142 -7 -155 -31 -5 -10 -23 -20
-40 -24 -33 -8 -48 -30 -30 -48 8 -8 6 -15 -6 -29 -15 -16 -14 -18 8 -27 l24
-9 -27 -7 c-50 -13 -49 -66 3 -104 26 -19 33 -21 47 -9 51 40 109 55 137 35
27 -20 95 -10 117 17 22 26 24 8 2 -22 -19 -28 -11 -42 27 -42 22 0 32 7 41
25 9 20 18 25 49 25 21 0 54 10 74 22 34 19 37 24 31 56 -6 43 7 70 41 83 30
11 26 18 -24 35 -40 14 -57 10 -49 -12 3 -8 -1 -14 -9 -14 -19 0 -65 21 -65
30 0 8 76 20 130 20 32 0 39 -4 44 -25 4 -16 0 -34 -10 -50 -16 -24 -15 -27 1
-45 35 -38 83 -16 86 40 l1 25 7 -25 c5 -17 3 -31 -7 -42 -13 -16 -12 -19 12
-29 34 -16 34 -32 0 -19 -62 24 -161 -4 -139 -40 4 -7 9 -28 11 -47 3 -33 38
-93 54 -93 5 0 12 9 15 20 3 11 13 20 21 20 8 0 14 4 14 9 0 4 19 11 43 14 30
4 50 14 70 37 25 28 27 36 21 80 -7 50 -6 50 25 56 36 7 40 19 11 34 -21 11
-21 11 5 41 27 32 32 49 14 49 -27 0 6 19 52 30 49 12 51 12 79 -15 19 -19 36
-26 49 -22 30 7 26 0 -9 -18 -26 -14 -30 -14 -30 -1 0 9 -14 23 -31 31 -29 15
-32 15 -44 -2 -7 -10 -11 -21 -9 -24 2 -4 -4 -6 -14 -5 -15 1 -17 -10 -17 -94
0 -108 10 -85 -145 -335 -109 -176 -135 -225 -117 -225 14 0 70 56 110 110 14
19 69 114 122 210 97 175 139 240 154 240 12 0 78 -129 86 -170 6 -29 5 -33
-6 -22 -18 17 -49 15 -49 -2 0 -21 -39 -46 -71 -46 -17 0 -32 -9 -43 -25 -22
-34 -20 -45 8 -45 14 0 28 -5 31 -10 3 -6 -4 -10 -17 -10 -31 0 -68 -27 -68
-49 0 -18 29 -51 45 -51 4 0 26 20 49 45 38 40 47 45 87 45 24 0 55 3 68 7
l24 6 -24 18 -24 19 27 0 c34 0 45 18 22 35 -18 13 -18 15 10 43 15 17 25 35
22 41 -4 6 -2 11 5 11 6 0 9 -8 6 -17 -2 -10 -6 -24 -8 -32 -8 -28 20 -21 36
9 13 25 19 29 35 20 13 -7 21 -7 25 0 4 6 25 20 47 31 35 18 39 23 24 31 -9 5
-30 6 -46 3 -17 -4 -30 -2 -30 3 0 14 26 22 75 22 23 0 57 3 74 6 26 5 31 11
31 34 0 25 4 28 48 34 53 7 157 66 166 94 5 13 20 18 73 20 74 3 84 8 86 45 2
22 5 24 38 20 35 -5 61 3 207 68 38 17 55 20 63 12 8 -8 1 -16 -26 -29 -21 -9
-63 -43 -95 -75 -32 -31 -73 -65 -91 -75 -45 -22 -119 -75 -119 -85 0 -4 21
-10 47 -15 67 -11 68 -11 65 7 -1 10 7 19 21 23 13 3 29 17 35 31 11 23 16 25
47 19 26 -5 35 -3 35 7 0 8 14 28 30 46 25 28 33 31 65 26 31 -5 37 -3 41 15
4 13 24 27 60 41 66 25 124 67 124 90 0 19 58 51 90 51 11 0 24 9 30 20 8 15
17 19 34 14 16 -4 25 0 29 10 4 9 12 16 20 16 7 0 19 16 26 35 10 28 20 37 53
47 22 6 45 20 52 30 6 10 23 18 38 18 16 0 28 4 28 8 0 4 15 14 34 20 19 7 49
29 66 49 l31 35 25 -23 24 -22 0 34 c0 29 7 40 50 74 51 40 69 80 57 124 -3
14 2 21 18 25 13 3 26 15 30 25 4 14 21 23 59 31 52 11 84 36 140 115 12 17
17 18 41 7 23 -10 30 -11 36 -1 5 9 12 4 20 -15 12 -25 11 -29 -6 -39 -11 -6
-37 -30 -60 -55 -22 -25 -70 -69 -107 -99 -65 -51 -81 -73 -57 -73 15 0 90 54
200 144 48 39 99 79 113 89 16 11 26 27 26 42 0 22 -5 25 -35 25 -40 0 -43 7
-14 44 24 31 39 33 39 6 0 -11 7 -20 15 -20 11 0 15 12 15 45 0 37 3 45 19 45
28 0 45 25 32 49 -14 26 -14 41 2 41 6 0 28 16 47 36 33 34 42 36 83 19 14 -6
17 -2 18 21 0 28 1 28 11 7 15 -32 35 -29 57 10 11 17 27 40 37 49 16 16 15
19 -5 53 -20 34 -31 77 -12 47 5 -8 17 -12 27 -10 14 2 20 14 24 48 4 35 9 45
24 45 14 0 19 9 22 38 2 26 -1 37 -11 37 -7 0 -15 -6 -18 -12 -6 -19 -41 4
-45 28 -2 11 -12 26 -24 33 -18 11 -23 11 -32 -1 -7 -10 -22 -14 -42 -11 -37
6 -49 -8 -34 -37 10 -18 7 -22 -19 -31 -33 -11 -39 -27 -19 -47 9 -9 14 -7 23
5 13 18 45 11 45 -9 0 -7 -12 -26 -25 -41 -24 -27 -26 -27 -49 -11 -19 11 -36
14 -66 9 -33 -6 -40 -4 -40 9 0 10 -8 16 -21 16 -15 0 -19 5 -15 18 3 9 10 39
16 67 9 40 44 115 54 115 1 0 26 -11 54 -25 29 -14 55 -25 58 -25 3 0 15 11
26 25 11 14 25 24 32 22 6 -2 18 -1 27 4 14 7 18 40 10 91 -2 13 -75 1 -80
-13 -7 -24 -53 -79 -65 -79 -7 0 -17 5 -23 11 -29 29 64 120 197 193 84 45
107 68 132 125 33 78 75 110 106 79 24 -24 13 -48 -33 -70 -30 -15 -48 -31
-55 -51 -17 -49 -12 -151 10 -207 39 -98 22 -205 -50 -315 -38 -58 -41 -67
-38 -122 3 -55 5 -58 30 -61 14 -2 44 1 65 7 46 13 71 49 79 118 6 47 27 93
42 93 4 0 14 -16 24 -34 16 -33 16 -34 -10 -54 -27 -21 -27 -21 -4 -21 34 -1
26 -18 -13 -25 -37 -7 -40 -12 -26 -35 11 -16 54 -8 99 19 28 17 32 25 32 64
0 25 5 57 10 72 13 33 -4 94 -26 94 -8 0 -14 -4 -14 -8 0 -4 -13 -15 -29 -25
-28 -16 -29 -16 -35 6 -3 12 -6 32 -6 44 0 12 -5 23 -11 25 -9 3 -9 9 0 25 16
32 14 63 -5 63 -15 0 -16 9 -10 61 7 75 46 149 95 183 20 14 80 70 134 124 97
97 98 99 115 173 l17 74 103 0 104 0 33 37 c19 20 37 33 40 28 7 -11 3 -19
-43 -79 -29 -38 -33 -50 -30 -95 l3 -51 38 1 c25 1 47 10 64 25 15 14 24 18
20 9 -3 -8 -26 -64 -51 -123 -25 -60 -46 -120 -46 -133 0 -48 77 -92 121 -69
22 13 24 19 25 102 1 65 8 110 28 173 14 47 40 141 57 210 16 69 48 181 69
250 21 69 41 152 42 186 4 52 9 68 38 104 53 67 142 128 198 135 26 4 81 18
122 31 41 14 83 28 93 31 11 3 17 0 17 -10 0 -9 9 -22 21 -30 17 -13 19 -19
10 -36 -13 -24 -5 -44 32 -80 21 -19 32 -22 65 -16 43 7 58 25 43 53 -4 9 -16
50 -26 90 -12 49 -24 77 -38 87 -16 11 -18 18 -10 26 16 16 62 -3 98 -41 22
-23 25 -31 16 -48 -15 -28 -14 -42 3 -42 7 0 19 -14 26 -30 13 -32 63 -66 80
-55 18 11 11 146 -9 190 -22 48 -44 69 -96 91 -37 15 -38 17 -19 28 70 38 104
86 97 132 l-6 34 67 0 c61 0 76 -5 177 -55 103 -52 118 -57 219 -67 75 -8 126
-8 164 -2 46 9 58 8 71 -5 12 -12 19 -13 34 -4 15 9 21 7 36 -10 16 -19 17
-28 7 -85 -5 -34 -16 -69 -22 -77 -29 -35 -153 -46 -196 -18 -14 9 -36 37 -49
63 -13 26 -35 51 -50 58 -30 14 -125 16 -125 3 0 -4 11 -23 25 -42 13 -19 38
-57 55 -86 17 -29 39 -54 48 -57 53 -15 206 -38 264 -39 91 -3 108 12 188 161
97 180 92 175 186 183 43 4 112 17 152 29 53 16 89 21 130 18 50 -4 60 -9 90
-44 54 -62 61 -76 67 -139 11 -109 16 -127 43 -152 39 -36 102 -67 114 -55 9
9 7 22 -37 182 -8 30 -32 79 -53 108 -20 29 -56 80 -79 115 -73 108 -76 110
-141 103 -32 -3 -63 -2 -70 3 -8 5 31 11 100 15 145 9 295 30 481 67 82 16
153 27 158 23 20 -12 7 -37 -41 -81 -38 -35 -50 -53 -50 -75 0 -32 39 -78 65
-78 35 0 163 -62 192 -93 29 -30 31 -38 35 -123 3 -78 8 -98 35 -145 17 -30
37 -55 45 -57 17 -3 31 39 50 146 6 39 15 72 18 72 19 0 63 -132 70 -208 9
-90 28 -132 61 -132 14 0 25 12 35 37 20 47 9 110 -35 203 -17 36 -26 66 -21
68 5 2 40 -7 77 -20 52 -17 91 -23 163 -23 52 -1 145 -5 206 -9 124 -10 166
-2 205 40 21 22 24 34 22 89 l-3 64 33 10 c65 20 119 42 173 71 61 32 59 33
214 -5 212 -52 327 -56 453 -14 63 20 68 21 101 5 55 -26 129 -36 267 -36
l129 0 0 -37 c0 -41 -28 -96 -57 -112 -10 -5 -48 -14 -83 -21 -36 -6 -73 -13
-83 -16 -10 -3 -44 -45 -77 -92 -108 -158 -130 -176 -238 -191 -81 -11 -94
-19 -148 -92 -50 -68 -47 -72 39 -65 39 4 93 7 118 6 44 0 49 2 110 67 144
154 199 202 263 232 35 17 69 31 75 31 29 0 -1 -69 -79 -186 -63 -92 -111
-134 -153 -134 -24 0 -41 -9 -64 -32 -43 -46 -68 -97 -53 -112 18 -18 105 -12
135 10 14 10 52 33 82 49 48 25 58 36 68 70 22 78 78 178 124 224 35 36 70 58
146 91 137 58 243 117 250 139 3 9 19 38 35 64 l30 47 82 0 c46 -1 141 -5 211
-10 100 -6 134 -5 155 5 79 38 141 64 178 74 37 10 52 21 113 86 11 12 50 32
88 45 37 13 84 33 103 45 19 12 43 24 53 28 17 6 16 4 -3 -22 -29 -42 -60
-112 -60 -140 0 -20 3 -22 27 -16 47 11 176 75 202 98 29 27 93 161 85 181 -3
7 2 16 10 19 8 3 31 41 51 83 33 73 34 79 20 101 -9 13 -27 28 -40 33 -25 9
-25 10 -8 44 13 29 14 40 5 61 -16 35 -39 41 -74 21 -16 -10 -30 -16 -31 -14
-26 41 -41 99 -47 178 -7 91 -23 152 -52 199 -12 21 -10 25 27 58 22 19 57 44
78 54 77 40 103 139 43 167 -49 24 -218 17 -342 -13 -58 -14 -109 -23 -113
-20 -6 6 7 18 79 73 33 26 41 62 12 62 -10 0 -23 -5 -30 -12 -23 -23 -22 0 3
36 29 43 34 109 9 144 -14 21 -43 30 -45 15z m-27 -245 c-7 -7 -12 -8 -12 -2
0 14 12 26 19 19 2 -3 -1 -11 -7 -17z m-295 -40 c-3 -8 -6 -5 -6 6 -1 11 2 17
5 13 3 -3 4 -12 1 -19z m-82 -17 c-3 -6 -11 -11 -17 -11 -6 0 -6 6 2 15 14 17
26 13 15 -4z m-4396 -56 c-21 -35 -29 -42 -29 -26 0 9 39 61 45 61 3 0 -5 -16
-16 -35z m5201 15 c8 -16 8 -20 -3 -20 -8 0 -17 9 -20 20 -3 11 -1 20 4 20 4
0 13 -9 19 -20z m-5145 -65 c-39 -32 -55 -32 -18 0 15 13 33 24 38 24 6 0 -3
-11 -20 -24z m2337 -82 c6 -7 7 -13 2 -13 -16 0 -74 40 -74 50 0 12 55 -17 72
-37z m2055 18 c10 -16 7 -20 -26 -30 -47 -14 -61 -14 -61 -1 0 5 6 7 14 4 21
-8 59 15 52 32 -8 20 7 17 21 -5z m107 9 c-7 -7 -19 -7 -35 -1 -23 9 -22 10
11 10 23 1 31 -2 24 -9z m-5104 -47 c0 -10 3 -29 6 -43 5 -18 4 -22 -4 -15
-17 15 -27 75 -13 75 6 0 11 -8 11 -17z m449 -63 c4 0 16 -7 27 -15 19 -15 19
-15 -1 -8 -30 10 -45 24 -44 42 1 13 2 13 6 -1 2 -10 8 -18 12 -18z m-319 -32
c0 -7 -33 -28 -44 -28 -9 0 -7 16 5 47 10 27 11 27 25 9 8 -11 14 -23 14 -28z
m-86 -43 c4 -12 -4 -15 -39 -15 -24 0 -47 -4 -50 -10 -3 -5 -18 -10 -33 -9
-15 0 -20 3 -12 6 8 2 29 11 45 18 26 11 52 19 76 24 4 0 9 -6 13 -14z m811
-22 c-21 -15 -30 -10 -22 11 4 10 13 13 23 9 15 -6 15 -7 -1 -20z m2052 -55
c-3 -7 -5 -2 -5 12 0 14 2 19 5 13 2 -7 2 -19 0 -25z m-2750 16 c-3 -3 -12 -4
-19 -1 -8 3 -5 6 6 6 11 1 17 -2 13 -5z m-2533 -76 c16 16 16 15 6 -15 l-12
-32 -34 31 c-41 38 -44 46 -6 19 27 -19 30 -19 46 -3z m2971 -58 c4 -6 30 -22
58 -36 29 -15 60 -33 70 -42 17 -15 24 -52 9 -52 -4 0 -13 -9 -20 -20 -11 -18
-9 -26 16 -58 27 -36 56 -102 48 -110 -8 -7 -33 52 -29 65 3 7 -12 22 -31 34
-20 11 -36 26 -36 32 0 6 -7 19 -17 29 -15 17 -15 18 5 18 38 0 24 27 -43 80
-36 29 -63 55 -61 58 3 3 0 12 -7 20 -10 13 -9 14 10 4 12 -7 25 -17 28 -22z
m870 18 c29 -13 28 -8 11 -73 -14 -53 -7 -85 19 -85 24 0 65 -44 71 -76 5 -29
4 -31 -24 -31 -41 0 -71 48 -83 134 -6 37 -14 85 -18 106 -5 20 -7 37 -5 37 2
0 15 -5 29 -12z m-930 -53 c14 -11 7 -10 -22 4 -23 12 -45 26 -48 32 -8 13 41
-12 70 -36z m1551 -29 c1 -40 1 -40 -36 -49 -23 -6 -26 -3 -25 21 0 21 -5 28
-22 30 -28 4 -29 10 -2 38 20 21 24 22 53 10 26 -11 31 -18 32 -50z m-3496
-32 c0 -12 -5 -36 -12 -54 l-11 -33 -18 22 c-22 27 -43 19 -33 -12 4 -16 3
-19 -5 -11 -7 6 -9 23 -5 41 5 24 10 30 26 25 23 -6 38 12 38 48 0 20 2 22 10
10 5 -8 10 -24 10 -36z m3645 -10 c19 -3 38 -3 43 0 14 8 21 -42 8 -52 -6 -5
-21 -12 -33 -15 -18 -4 -23 -1 -23 14 0 10 -4 19 -10 19 -5 0 -10 -4 -10 -10
0 -5 -4 -10 -10 -10 -5 0 -10 9 -10 20 0 11 -7 20 -15 20 -19 0 -19 4 2 43
l18 32 3 -27 c3 -22 10 -29 37 -34z m-3044 -27 c-13 -13 -15 31 -3 60 5 14 8
10 10 -16 2 -18 -1 -38 -7 -44z m6329 -61 c0 -6 -5 -5 -12 2 -22 22 -29 12
-12 -20 l16 -33 -38 38 c-29 27 -39 45 -39 70 0 17 -5 43 -9 57 -5 15 12 -2
43 -39 28 -35 51 -69 51 -75z m-7964 51 c5 -38 14 -54 43 -78 32 -27 33 -30
11 -24 -25 7 -149 131 -150 150 0 5 5 4 12 -3 19 -19 49 -14 55 9 8 30 21 6
29 -54z m504 63 c0 -5 -4 -10 -10 -10 -5 0 -10 5 -10 10 0 6 5 10 10 10 6 0
10 -4 10 -10z m5238 -32 c14 -16 13 -18 -6 -18 -18 0 -22 6 -21 33 0 17 3 25
6 17 3 -8 12 -23 21 -32z m-1678 28 c0 -3 -4 -8 -10 -11 -5 -3 -10 -1 -10 4 0
6 5 11 10 11 6 0 10 -2 10 -4z m-3741 -63 l-24 -25 -13 32 c-17 42 -7 53 30
34 l30 -16 -23 -25z m885 16 c-27 -30 -37 -22 -12 12 12 16 24 25 26 19 2 -6
-4 -20 -14 -31z m1835 -57 c35 -33 51 -55 44 -58 -7 -3 -13 -14 -13 -25 0 -10
-7 -19 -15 -19 -14 0 -14 -3 0 -30 27 -52 7 -33 -40 38 -30 45 -43 74 -39 86
4 11 -2 26 -16 41 -19 20 -20 26 -9 38 12 13 15 13 23 -2 5 -9 34 -40 65 -69z
m4630 52 c-13 -16 -39 -19 -39 -4 0 6 5 10 10 10 6 0 10 7 10 16 0 14 3 14 15
4 12 -10 13 -16 4 -26z m-2639 10 c0 -8 -5 -12 -10 -9 -6 4 -8 11 -5 16 9 14
15 11 15 -7z m-4644 -32 c-13 -25 -46 -51 -46 -36 0 8 54 73 58 69 2 -2 -3
-17 -12 -33z m84 14 c0 -8 -12 -21 -26 -31 -15 -9 -25 -13 -22 -8 21 46 32 62
39 57 5 -3 9 -11 9 -18z m2441 7 c13 -16 12 -17 -3 -4 -10 7 -18 15 -18 17 0
8 8 3 21 -13z m2016 -35 c-2 -13 -4 -5 -4 17 -1 22 1 32 4 23 2 -10 2 -28 0
-40z m152 -22 c-9 -8 -10 -7 -5 7 3 10 7 31 8 45 1 22 2 21 5 -7 3 -19 -1 -38
-8 -45z m850 34 c20 -39 20 -40 1 -50 -26 -14 -45 -13 -59 4 -9 11 -7 15 9 19
21 5 27 31 10 42 -15 9 -12 25 4 25 8 0 23 -18 35 -40z m-1106 10 c-9 -11 -19
-17 -21 -15 -6 6 18 35 29 35 5 0 1 -9 -8 -20z m58 -7 c-12 -20 -14 -14 -5 12
4 9 9 14 11 11 3 -2 0 -13 -6 -23z m2964 17 c3 -5 1 -10 -4 -10 -6 0 -11 5
-11 10 0 6 2 10 4 10 3 0 8 -4 11 -10z m146 -17 c13 -16 12 -17 -3 -4 -10 7
-18 15 -18 17 0 8 8 3 21 -13z m49 -3 c6 -11 8 -20 6 -20 -3 0 -10 9 -16 20
-6 11 -8 20 -6 20 3 0 10 -9 16 -20z m-3900 -15 c-7 -9 -15 -13 -18 -10 -3 2
1 11 8 20 7 9 15 13 18 10 3 -2 -1 -11 -8 -20z m4088 8 c-4 -20 -30 -28 -56
-18 -16 6 -15 8 2 21 28 20 58 18 54 -3z m-5276 -78 c9 -16 6 -16 -17 5 -15
14 -36 39 -48 55 -20 29 -19 29 17 -5 21 -19 42 -44 48 -55z m-1298 53 c-3
-13 -15 -31 -25 -41 -10 -10 -24 -38 -30 -63 -17 -68 -21 -46 -5 30 14 69 29
96 53 96 10 0 12 -6 7 -22z m3860 -1 c-3 -8 -12 -18 -20 -21 -20 -8 -18 21 3
33 21 12 25 9 17 -12z m-2937 -24 c-3 -3 -11 -2 -17 2 -8 5 -7 11 2 22 12 15
13 14 16 -1 2 -10 1 -20 -1 -23z m274 15 c30 -35 72 -108 66 -114 -3 -3 -13 8
-22 25 -8 17 -20 31 -25 31 -10 0 -50 58 -50 73 0 13 11 7 31 -15z m-571 8 c0
-2 -3 -11 -6 -20 -9 -23 -24 -20 -24 4 0 11 7 20 15 20 8 0 15 -2 15 -4z
m-425 -54 c6 -15 9 -14 26 7 23 28 25 27 32 -24 3 -22 3 -32 1 -22 -8 24 -23
21 -34 -8 -5 -14 -20 -27 -35 -31 -14 -3 -25 -12 -25 -18 0 -7 -6 -24 -12 -39
-17 -35 -65 -39 -70 -5 -2 12 -13 28 -26 34 l-23 11 31 13 c18 7 30 20 30 31
0 15 5 17 28 13 22 -4 29 0 40 23 10 23 10 29 -3 36 -8 4 -15 12 -15 18 0 14
47 -19 55 -39z m568 41 c-7 -2 -21 -2 -30 0 -10 3 -4 5 12 5 17 0 24 -2 18 -5z
m5052 -103 c5 -29 4 -31 -4 -13 -6 13 -13 46 -15 75 -5 51 -5 51 4 13 6 -22
12 -56 15 -75z m-4678 78 c-3 -8 -6 -5 -6 6 -1 11 2 17 5 13 3 -3 4 -12 1 -19z
m-2487 -9 c0 -6 -4 -7 -10 -4 -5 3 -10 11 -10 16 0 6 5 7 10 4 6 -3 10 -11 10
-16z m700 -33 c0 -12 -5 -7 -19 24 -11 24 -11 24 3 6 9 -11 16 -24 16 -30z
m1504 30 c23 5 55 -20 42 -33 -4 -4 -11 -1 -15 6 -6 9 -14 10 -22 5 -8 -5 -20
-9 -28 -9 -16 0 -50 -78 -50 -116 -1 -28 22 -54 54 -62 18 -4 18 -5 -2 -6 -12
0 -34 9 -49 22 -25 22 -26 25 -15 63 23 74 55 148 59 136 2 -7 13 -10 26 -6z
m2626 -21 c0 -44 17 -46 28 -3 l8 31 12 -40 c10 -32 10 -47 0 -70 l-12 -28 -4
28 c-4 29 -12 33 -30 15 -9 -9 -12 -8 -12 5 0 9 -8 20 -17 25 -14 8 -15 14 -3
41 17 41 30 39 30 -4z m-130 15 c0 -5 -7 -10 -15 -10 -8 0 -15 5 -15 10 0 6 7
10 15 10 8 0 15 -4 15 -10z m237 -27 c-3 -10 -5 -4 -5 12 0 17 2 24 5 18 2 -7
2 -21 0 -30z m2843 22 c0 -8 -7 -15 -15 -15 -16 0 -20 12 -8 23 11 12 23 8 23
-8z m-5471 -217 l-11 -43 -14 40 c-12 35 -11 41 4 58 11 13 18 43 22 95 l5 77
3 -93 c1 -50 -2 -111 -9 -134z m582 120 c7 -13 5 -16 -11 -15 -13 1 -20 8 -20
23 0 12 -7 24 -15 28 -8 3 -15 11 -15 17 0 14 47 -27 61 -53z m-2814 37 c3 -9
3 -19 -1 -22 -8 -9 -37 18 -30 28 8 14 24 11 31 -6z m3863 -10 c0 -8 -4 -15
-10 -15 -5 0 -7 7 -4 15 4 8 8 15 10 15 2 0 4 -7 4 -15z m126 -14 c-8 -13 -36
-15 -36 -3 0 4 5 13 12 20 14 14 34 0 24 -17z m605 16 c-1 -12 -15 -9 -19 4
-3 6 1 10 8 8 6 -3 11 -8 11 -12z m-2085 -24 c-10 -10 -19 5 -10 18 6 11 8 11
12 0 2 -7 1 -15 -2 -18z m1999 17 c3 -5 -1 -10 -9 -10 -9 0 -16 -5 -16 -12 0
-6 -3 -9 -6 -5 -9 8 3 37 15 37 5 0 13 -4 16 -10z m532 -57 c-2 -16 -4 -5 -4
22 0 28 2 40 4 28 2 -13 2 -35 0 -50z m-3233 27 c-7 -33 -3 -35 27 -20 17 10
19 7 19 -24 0 -35 -15 -57 -23 -34 -3 10 -9 10 -25 1 -18 -11 -20 -9 -25 14
-3 15 2 42 11 60 19 41 23 42 16 3z m1941 -1 c14 -22 -3 -18 -26 7 -23 25 -23
26 -2 15 12 -6 25 -16 28 -22z m3729 22 c3 -5 -3 -11 -14 -14 -13 -3 -20 0
-20 9 0 15 26 19 34 5z m-5309 -11 c-3 -5 -10 -10 -16 -10 -5 0 -9 5 -9 10 0
6 7 10 16 10 8 0 12 -4 9 -10z m595 -30 c24 -47 25 -57 5 -40 -12 10 -15 10
-15 -1 0 -11 -2 -11 -10 1 -5 9 -5 17 1 21 6 4 6 15 0 32 -15 40 -4 33 19 -13z
m3764 30 c-6 -6 -28 -13 -50 -15 l-39 -5 30 14 c36 18 74 21 59 6z m1281 -46
c-15 -35 -53 -94 -61 -94 -5 0 44 100 58 118 18 21 19 13 3 -24z m-7509 -20
c-8 -65 15 -104 64 -105 20 -1 27 -3 16 -6 -10 -3 -44 0 -75 6 -35 7 -68 8
-87 2 -29 -8 -31 -7 -30 18 1 23 5 27 25 23 19 -4 23 -1 18 11 -3 9 1 18 10
21 11 5 14 16 11 41 -4 33 -2 35 25 35 29 0 30 0 23 -46z m4280 19 c-10 -10
-19 5 -10 18 6 11 8 11 12 0 2 -7 1 -15 -2 -18z m-3259 -15 c-3 -8 -6 -5 -6 6
-1 11 2 17 5 13 3 -3 4 -12 1 -19z m417 7 c-4 -8 -10 -15 -15 -15 -5 0 -9 7
-9 15 0 8 7 15 15 15 9 0 12 -6 9 -15z m5370 -36 c-9 -15 -29 -10 -42 11 -20
32 -3 45 24 19 13 -12 21 -26 18 -30z m-5160 22 c3 -5 -1 -14 -9 -21 -13 -10
-15 -9 -15 9 0 21 14 28 24 12z m226 0 c0 -12 -20 -25 -27 -18 -7 7 6 27 18
27 5 0 9 -4 9 -9z m2839 -63 c1 -31 19 -47 32 -27 6 10 9 4 9 -18 0 -18 5 -33
10 -33 6 0 10 9 10 20 0 11 5 20 10 20 21 0 10 -66 -14 -89 l-24 -22 -19 25
c-11 14 -23 42 -26 63 -4 21 -13 47 -21 58 -13 18 -15 17 -31 -20 -22 -53 -30
-95 -18 -95 6 0 14 10 20 22 10 22 10 21 15 -10 3 -24 1 -32 -11 -32 -8 0 -28
-12 -44 -27 -25 -24 -28 -25 -24 -8 26 88 35 175 18 175 -5 0 -12 -10 -14 -22
-4 -19 -4 -18 -6 5 -1 37 17 70 35 63 8 -3 14 0 14 5 0 6 9 9 19 6 10 -2 25
-1 32 4 15 9 26 -16 28 -63z m1204 34 c4 -21 3 -31 -3 -27 -6 3 -10 20 -10 37
0 38 5 34 13 -10z m797 28 c0 -5 -5 -10 -11 -10 -5 0 -7 5 -4 10 3 6 8 10 11
10 2 0 4 -4 4 -10z m-5404 -16 c-3 -9 -6 -20 -6 -25 0 -5 -9 -9 -20 -9 -13 0
-20 7 -20 18 0 24 9 32 33 32 13 0 17 -5 13 -16z m2488 -59 c31 -9 64 -14 73
-11 8 4 31 1 49 -6 24 -9 37 -9 45 -1 7 7 17 4 35 -13 13 -14 37 -27 53 -30
32 -7 55 -45 46 -75 -9 -27 -53 -24 -124 6 -33 13 -79 29 -103 34 -47 11 -195
103 -205 127 -3 8 0 21 7 29 11 13 16 11 39 -14 17 -18 49 -36 85 -46z m-288
28 c-7 -17 -8 -17 -17 0 -12 21 -2 44 13 29 6 -6 8 -19 4 -29z m1039 13 c13
-19 14 -32 4 -77 -14 -65 -14 -65 -33 -46 -14 14 -14 20 -1 58 11 29 12 45 5
49 -9 6 -4 40 6 40 2 0 10 -11 19 -24z m-3438 0 c-3 -7 0 -22 7 -32 13 -19 29
-84 21 -84 -3 0 -14 18 -25 39 -11 22 -29 43 -41 46 -21 7 -20 8 7 26 35 23
38 23 31 5z m956 -34 c-24 -4 -73 14 -73 27 0 6 21 2 46 -7 31 -11 40 -18 27
-20z m2178 5 c-8 -8 -11 -7 -11 4 0 20 13 34 18 19 3 -7 -1 -17 -7 -23z
m-3718 -2 c16 -22 16 -26 3 -31 -22 -8 -36 4 -36 32 0 30 10 30 33 -1z m6857
21 c0 -3 -4 -8 -10 -11 -5 -3 -10 -1 -10 4 0 6 5 11 10 11 6 0 10 -2 10 -4z
m-5494 -34 c-9 -9 -37 8 -31 18 5 8 11 7 21 -1 8 -6 12 -14 10 -17z m-1616 10
c0 -4 -16 -29 -35 -57 -24 -33 -49 -93 -76 -179 -40 -128 -42 -131 -102 -188
-33 -32 -64 -58 -68 -58 -4 0 -5 26 -2 58 4 47 1 68 -21 119 -14 34 -26 71
-26 82 0 10 -13 45 -30 76 -16 31 -28 61 -25 65 12 19 67 21 114 4 39 -14 54
-15 82 -6 30 11 32 10 15 -3 -10 -8 -43 -19 -72 -25 -93 -20 -80 -54 17 -47
71 6 92 19 136 87 20 30 43 61 51 68 17 13 42 16 42 4z m740 -35 c0 -5 -7 -4
-15 3 -8 7 -15 20 -15 29 1 13 3 13 15 -3 8 -11 15 -24 15 -29z m693 23 c29 0
38 -3 28 -9 -8 -5 -42 -9 -75 -9 -45 1 -73 -5 -106 -22 -44 -22 -44 -22 -26
-2 10 12 23 19 27 16 5 -3 9 0 9 5 0 6 13 11 29 11 17 0 33 5 36 11 4 6 14 8
22 5 8 -3 33 -6 56 -6z m1931 -30 c23 -58 20 -96 -11 -141 -16 -21 -31 -39
-34 -39 -13 0 -99 74 -99 85 0 18 100 135 115 135 7 0 20 -18 29 -40z m2300
-55 c-23 -61 -28 -52 -7 14 10 29 19 48 21 42 2 -6 -4 -31 -14 -56z m1531 25
c-15 -29 -68 -70 -90 -70 -5 1 2 8 18 16 15 8 27 19 27 24 0 12 51 72 57 66 2
-2 -3 -18 -12 -36z m-6820 -16 c-12 -19 -20 -23 -28 -15 -8 8 -4 18 13 36 29
31 39 16 15 -21z m5585 -23 l-1 -26 -14 25 c-8 14 -14 34 -14 45 0 20 0 20 14
1 8 -11 15 -31 15 -45z m1150 50 c0 -4 -11 -6 -25 -3 -14 2 -25 6 -25 8 0 2
11 4 25 4 14 0 25 -4 25 -9z m-6070 -10 c0 -6 -4 -13 -10 -16 -5 -3 -10 1 -10
9 0 9 5 16 10 16 6 0 10 -4 10 -9z m577 -13 c-3 -8 -6 -5 -6 6 -1 11 2 17 5
13 3 -3 4 -12 1 -19z m5223 -10 c-36 -17 -84 -48 -108 -70 -24 -22 -46 -38
-48 -35 -11 11 37 87 55 87 9 0 44 11 77 25 84 34 102 29 24 -7z m-4885 -18
l15 -28 -30 11 c-19 7 -28 17 -25 25 3 8 5 18 5 23 0 17 19 0 35 -31z m-2444
14 c25 -12 28 -18 18 -30 -9 -11 -9 -17 1 -29 10 -13 9 -15 -11 -15 -14 0 -30
9 -37 21 -12 19 -11 20 7 14 27 -8 27 3 -1 32 -25 27 -19 29 23 7z m7179 -5
c0 -5 -7 -9 -15 -9 -9 0 -12 6 -9 15 6 15 24 11 24 -6z m-5291 -37 c63 -64
126 -91 218 -94 67 -3 79 -5 70 -17 -26 -31 -291 14 -396 67 -58 29 -77 52
-43 52 12 0 23 9 27 21 11 34 78 18 124 -29z m252 -9 c-9 -15 -10 -13 -11 13
0 17 3 34 8 38 11 12 14 -32 3 -51z m2646 25 c-3 -7 -5 -2 -5 12 0 14 2 19 5
13 2 -7 2 -19 0 -25z m-3227 2 c12 -8 9 -10 -13 -10 -16 0 -26 4 -22 10 8 12
16 12 35 0z m70 0 c0 -5 -4 -10 -9 -10 -6 0 -13 5 -16 10 -3 6 1 10 9 10 9 0
16 -4 16 -10z m1991 -23 c-16 -16 -26 0 -10 19 9 11 15 12 17 4 2 -6 -1 -17
-7 -23z m-3527 -40 c10 -15 16 -30 13 -33 -8 -8 -47 57 -46 76 0 13 1 13 7 0
4 -8 15 -28 26 -43z m3842 -14 c-3 -7 -12 -13 -21 -13 -16 0 -19 20 -9 58 7
23 7 23 21 -4 7 -15 11 -34 9 -41z m574 42 c-7 -8 -16 -15 -21 -15 -5 0 -9 7
-9 15 0 9 9 15 21 15 18 0 19 -2 9 -15z m-3280 -10 c16 -19 7 -41 -20 -48 -17
-4 -19 -3 -10 8 7 8 9 23 5 35 -7 23 7 27 25 5z m947 -17 c-3 -7 -5 -2 -5 12
0 14 2 19 5 13 2 -7 2 -19 0 -25z m1897 17 c12 16 18 17 62 6 27 -7 60 -20 74
-29 18 -12 44 -15 98 -14 39 1 72 -1 72 -5 -1 -5 -22 -39 -49 -78 -58 -85 -98
-115 -157 -115 -60 0 -92 18 -115 62 -12 23 -27 38 -38 38 -13 0 -20 12 -28
45 -9 38 -7 49 9 76 18 30 20 31 39 13 19 -17 20 -17 33 1z m1920 -6 c49 -5
91 -11 94 -13 2 -3 -7 -10 -20 -17 -29 -17 -154 -14 -228 4 l-55 13 45 16 c25
9 52 14 60 11 8 -2 55 -9 104 -14z m-3445 -27 c3 -1 0 -7 -7 -14 -13 -13 -36
2 -54 35 -10 19 -9 19 24 1 18 -11 35 -20 37 -22z m156 18 c-28 -12 -45 -12
-45 0 0 6 15 10 33 9 27 0 29 -2 12 -9z m4340 -24 c19 -4 45 -4 59 0 16 4 26
2 26 -4 0 -12 -149 -72 -179 -72 -11 0 -24 -7 -29 -16 -8 -14 -20 -14 -108 -4
-62 8 -143 9 -216 5 -65 -4 -118 -4 -118 0 0 7 53 54 77 68 7 5 39 3 69 -3 50
-10 61 -10 103 9 27 11 57 17 70 14 13 -3 29 1 41 12 18 16 20 17 20 2 0 -19
15 -23 26 -6 4 7 21 9 44 5 24 -4 43 -1 56 8 16 12 20 12 22 1 2 -7 18 -16 37
-19z m-6271 -78 c7 -5 5 -8 -6 -8 -24 0 -88 66 -88 91 0 16 9 10 41 -28 23
-26 47 -51 53 -55z m4736 90 c-36 -15 -208 -23 -195 -10 9 10 56 15 185 19 33
2 34 1 10 -9z m-5534 -29 c4 -7 -2 -9 -17 -7 -13 2 -25 11 -27 21 -3 16 -1 17
17 8 11 -6 23 -16 27 -22z m104 -10 c0 -5 -7 -9 -15 -9 -9 0 -15 9 -15 21 0
18 2 19 15 9 8 -7 15 -16 15 -21z m4490 28 c0 -2 -15 -16 -32 -33 l-33 -29 29
33 c28 30 36 37 36 29z m-2350 -17 c0 -5 -2 -10 -4 -10 -3 0 -8 5 -11 10 -3 6
-1 10 4 10 6 0 11 -4 11 -10z m3937 -6 c-3 -3 -12 -4 -19 -1 -8 3 -5 6 6 6 11
1 17 -2 13 -5z m-5034 -33 c-3 -12 -11 -17 -19 -14 -11 4 -12 9 -3 19 16 20
28 17 22 -5z m270 -18 c-22 -54 -34 -75 -39 -70 -8 7 41 107 52 107 1 0 -4
-17 -13 -37z m5053 -1 c-18 -16 -18 -16 -6 6 6 13 14 21 18 18 3 -4 -2 -14
-12 -24z m-5872 -67 c32 -26 55 -53 61 -73 12 -41 25 -41 25 1 l1 32 29 -33
c29 -31 41 -60 20 -47 -5 3 -10 -3 -10 -14 0 -12 -5 -21 -11 -21 -6 0 -9 -6
-6 -13 2 -6 -1 -17 -8 -24 -10 -9 -14 -5 -19 23 -6 30 -26 49 -26 25 0 -5 -15
5 -32 22 -31 30 -31 32 -13 37 11 3 21 15 23 27 4 30 -28 45 -88 42 -27 -2
-53 0 -56 4 -4 4 -18 7 -31 7 -28 0 -29 15 -5 52 17 26 18 26 30 8 15 -25 42
-26 42 -2 0 29 15 37 19 10 2 -13 24 -40 55 -63z m-456 35 c13 -16 18 -30 11
-30 -6 0 1 -14 15 -31 14 -17 26 -39 26 -50 0 -26 -9 -24 -20 6 -5 14 -15 25
-21 25 -11 0 -9 -20 7 -79 5 -17 4 -22 -4 -17 -8 5 -12 0 -12 -13 0 -22 -20
-30 -20 -8 -1 8 -5 7 -13 -4 -7 -9 -18 -14 -24 -12 -9 3 -13 -8 -13 -39 0 -37
-3 -44 -20 -44 -14 0 -20 7 -20 24 0 17 4 23 15 18 18 -6 19 6 4 57 -7 27 -15
37 -25 33 -10 -4 -14 2 -14 19 0 39 18 39 37 1 17 -36 33 -47 33 -23 0 6 -14
41 -30 77 -16 37 -25 67 -19 71 5 3 7 13 3 22 -4 12 0 15 18 13 13 -1 29 -6
36 -10 7 -4 12 -1 12 8 0 24 14 19 38 -14z m3779 -119 c-4 -32 -9 -65 -13 -75
-6 -16 -9 -15 -30 5 -27 26 -31 47 -9 55 17 7 21 34 4 34 -6 0 -8 9 -4 20 4
12 0 31 -9 45 -9 13 -16 32 -16 42 0 13 11 6 42 -26 40 -42 41 -44 35 -100z
m2230 107 c-3 -7 -5 -2 -5 12 0 14 2 19 5 13 2 -7 2 -19 0 -25z m-6237 -40 c9
-28 22 -54 29 -56 10 -3 11 2 6 19 -6 19 -5 21 5 12 13 -12 8 -45 -9 -72 -11
-17 -51 2 -51 24 0 8 -6 15 -14 15 -21 0 -30 33 -12 46 9 6 16 26 16 44 0 43
8 34 30 -32z m4682 40 c48 -74 26 -108 -68 -108 -54 0 -65 3 -78 22 -13 18
-13 25 -3 35 13 13 118 73 128 73 4 0 13 -10 21 -22z m-3802 -3 c19 -23 8 -26
-19 -4 -16 13 -18 19 -8 19 8 0 20 -7 27 -15z m-25 -43 c-3 -3 -18 7 -33 23
l-27 28 33 -23 c18 -12 31 -25 27 -28z m3235 32 c38 -15 51 -36 31 -48 -7 -4
-63 33 -90 60 -10 9 21 3 59 -12z m2485 -44 c-12 -37 -26 -57 -49 -71 -42 -26
-57 -24 -25 4 15 12 30 36 34 52 6 29 44 79 53 71 2 -3 -4 -28 -13 -56z
m-5493 23 c4 -36 86 -93 132 -93 17 0 38 -4 45 -9 17 -11 17 -11 -114 -37 -44
-9 -102 -27 -128 -40 -27 -13 -50 -24 -52 -24 -1 0 -5 19 -8 43 -3 23 -9 61
-13 85 -7 47 1 59 61 87 49 23 73 19 77 -12z m2189 -45 c5 -22 8 -42 5 -45 -8
-8 -34 40 -41 77 -7 31 -6 33 9 21 9 -7 21 -31 27 -53z m-6313 22 c72 -37 113
-77 92 -90 -8 -5 -30 -10 -47 -10 -26 0 -33 4 -33 19 0 12 -17 31 -42 48 -40
27 -62 63 -39 63 6 0 37 -13 69 -30z m4312 20 c-8 -5 -22 -10 -30 -10 -13 0
-13 1 0 10 8 5 22 10 30 10 13 0 13 -1 0 -10z m120 -19 c-13 -26 -50 -51 -73
-51 -26 0 42 58 81 69 1 1 -2 -8 -8 -18z m-4979 -48 c1 -32 3 -79 3 -106 1
-37 5 -48 19 -53 25 -8 29 -1 17 30 -5 15 -10 56 -10 92 l0 65 115 -7 c84 -5
115 -4 115 5 0 6 3 11 8 11 4 0 7 -44 8 -98 1 -87 -11 -92 -15 -6 0 16 -8 39
-16 50 -15 17 -16 12 -13 -63 4 -96 -9 -95 -23 2 -10 73 -14 85 -31 85 -7 0
-9 -22 -6 -67 7 -78 -5 -129 -17 -78 -11 49 -14 55 -25 55 -5 0 -10 -14 -10
-31 0 -19 -7 -37 -17 -45 -16 -12 -16 -15 -3 -24 12 -8 12 -12 3 -18 -10 -6
-10 -12 2 -28 15 -19 15 -19 34 4 11 12 25 22 33 21 10 0 10 -2 1 -6 -7 -2
-13 -11 -13 -19 0 -23 57 -18 70 6 6 11 20 20 32 20 15 0 19 -5 15 -20 -3 -13
0 -20 9 -20 9 0 14 11 14 28 1 20 3 23 9 12 13 -22 17 -95 5 -93 -55 10 -248
22 -273 17 -33 -7 -40 -18 -16 -28 24 -9 18 -116 -6 -116 -5 0 -9 24 -9 54 0
37 -6 61 -18 76 l-18 22 -49 -26 c-28 -14 -75 -36 -106 -50 -31 -13 -111 -58
-178 -100 -87 -55 -128 -75 -142 -71 -11 4 -30 0 -44 -9 -13 -9 -31 -13 -40
-10 -14 6 -15 1 -10 -30 6 -28 3 -41 -11 -57 -10 -11 -24 -17 -32 -14 -8 3
-20 1 -27 -5 -14 -11 -25 46 -25 128 0 36 3 43 12 34 32 -32 37 1 8 57 l-19
38 25 12 c14 6 36 11 49 11 30 0 33 16 6 25 -20 6 -41 51 -34 73 8 20 20 14
29 -15 l7 -28 7 30 8 30 1 -33 c0 -18 5 -42 11 -52 9 -17 13 -17 67 -3 32 8
64 19 70 25 7 6 24 8 38 6 18 -4 25 -1 25 11 0 22 116 87 123 69 2 -7 0 -23
-6 -35 -10 -22 -4 -53 10 -53 14 0 35 60 30 86 -4 21 3 31 36 55 22 16 49 29
59 29 27 0 66 47 78 95 33 123 47 135 51 48z m9816 32 c-4 -8 -11 -15 -17 -15
-6 0 -6 7 2 20 14 22 24 19 15 -5z m90 -7 c-3 -7 -5 -2 -5 12 0 14 2 19 5 13
2 -7 2 -19 0 -25z m184 15 c-16 -30 -74 -81 -104 -92 -16 -6 -45 -11 -65 -10
-40 1 -38 3 25 19 23 6 65 30 95 55 60 50 62 52 49 28z m-9691 -18 c14 -19 14
-19 -2 -6 -10 7 -18 18 -18 24 0 6 1 8 3 6 1 -2 9 -13 17 -24z m4400 5 c12 -8
11 -10 -7 -10 -12 0 -25 5 -28 10 -8 13 15 13 35 0z m409 -46 c12 -15 21 -40
21 -57 0 -40 -11 -27 -19 20 -5 28 -13 41 -34 51 -15 7 -27 18 -27 23 0 15 36
-7 59 -37z m3148 24 c-3 -8 -6 -5 -6 6 -1 11 2 17 5 13 3 -3 4 -12 1 -19z
m-8586 -43 c21 -43 22 -47 7 -78 -19 -41 -187 -152 -216 -143 -23 8 -52 57
-52 89 0 13 9 36 20 49 17 23 27 25 82 25 81 -1 110 14 102 51 -5 22 -4 25 7
15 21 -20 32 -15 25 12 -10 38 0 30 25 -20z m4407 9 c33 -22 22 -27 -21 -9
-20 8 -49 15 -64 15 -22 0 -25 2 -13 10 19 13 66 5 98 -16z m-4484 -16 c15
-10 6 -15 -41 -23 -29 -4 -43 -3 -43 4 0 6 6 10 13 9 7 -2 11 5 9 17 -3 16 -1
18 9 8 18 -18 29 -16 30 5 0 13 2 14 6 2 3 -8 11 -18 17 -22z m4816 -89 c0
-52 -2 -59 -20 -59 -17 0 -20 -7 -20 -40 0 -22 -4 -40 -10 -40 -5 0 -10 6 -10
13 0 6 -3 29 -6 49 -6 33 -5 36 14 31 17 -4 22 1 28 34 10 47 6 73 -12 94 -8
8 -14 20 -14 25 0 5 12 -4 25 -19 21 -23 25 -39 25 -88z m-4974 73 c-8 -16
-23 -35 -32 -43 -14 -11 -12 -4 6 29 26 46 49 59 26 14z m6200 -29 c-12 -12
-41 12 -44 38 l-4 24 28 -27 c15 -15 25 -31 20 -35z m-5240 5 c7 -10 -44 -68
-59 -68 -8 0 -1 65 9 81 5 9 43 -1 50 -13z m4531 0 c20 -22 43 -61 43 -72 0
-18 -22 -2 -31 22 -6 15 -20 37 -31 50 -12 12 -17 22 -11 22 5 0 19 -10 30
-22z m1024 -11 c-16 -16 -26 0 -10 19 9 11 15 12 17 4 2 -6 -1 -17 -7 -23z
m-1976 13 c3 -5 1 -10 -4 -10 -6 0 -11 5 -11 10 0 6 2 10 4 10 3 0 8 -4 11
-10z m5502 -18 c12 -8 -49 -79 -218 -254 -57 -60 -100 -76 -113 -43 -5 14 -12
12 -43 -10 -53 -35 -74 -33 -38 5 35 36 65 46 95 30 18 -10 28 -7 60 15 60 42
126 111 182 191 52 77 55 79 75 66z m382 3 c-3 -2 -23 -11 -45 -20 l-39 -16
24 21 c19 16 75 31 60 15z m-5794 -15 c-3 -5 -13 -10 -21 -10 -8 0 -12 5 -9
10 3 6 13 10 21 10 8 0 12 -4 9 -10z m5635 2 c0 -5 -9 -17 -20 -27 -22 -20
-26 -14 -10 16 11 19 30 26 30 11z m-2036 -44 c24 -58 28 -78 16 -78 -6 0 -14
10 -19 23 -12 32 -21 87 -15 87 3 0 11 -15 18 -32z m-3694 -3 c14 -7 36 -26
50 -42 l25 -28 -30 27 c-17 15 -50 36 -75 47 -25 12 -34 18 -20 15 14 -4 36
-12 50 -19z m375 15 c3 -5 -1 -10 -10 -10 -9 0 -13 5 -10 10 3 6 8 10 10 10 2
0 7 -4 10 -10z m-1089 -42 c62 -58 70 -74 38 -81 -22 -4 -28 1 -42 32 -9 20
-25 48 -35 64 -26 38 -14 34 39 -15z m498 7 c-4 -8 -11 -15 -16 -15 -6 0 -5 6
2 15 7 8 14 15 16 15 2 0 1 -7 -2 -15z m-2184 -70 c0 -23 -3 -44 -6 -48 -3 -3
-28 6 -55 21 l-48 27 36 37 c35 35 38 37 55 21 12 -11 18 -30 18 -58z m1830
58 c-1 -18 -18 -35 -24 -24 -4 6 -4 16 -1 21 7 12 25 13 25 3z m-3105 -115
c-38 -91 -54 -122 -61 -115 -5 4 27 100 58 175 14 33 25 49 31 43 7 -7 -4 -43
-28 -103z m580 92 c0 -7 -10 -19 -22 -27 -22 -15 -23 -14 -23 10 0 25 14 38
35 33 6 -2 10 -8 10 -16z m2710 10 c3 -5 -1 -10 -9 -10 -9 0 -16 5 -16 10 0 6
4 10 9 10 6 0 13 -4 16 -10z m-2777 -36 c-4 -3 -12 5 -18 18 -12 22 -12 22 6
6 10 -10 15 -20 12 -24z m275 -13 c17 -7 30 -24 40 -55 9 -25 14 -46 11 -46
-3 0 -27 11 -54 25 l-50 25 -47 -24 c-27 -13 -74 -45 -107 -70 -32 -25 -60
-46 -62 -46 -7 0 10 77 22 97 8 12 14 29 14 37 0 41 168 81 233 57z m2337 -10
c0 -23 -16 -36 -25 -21 -9 14 1 40 15 40 5 0 10 -9 10 -19z m-4000 -9 c0 -5
-11 -14 -25 -20 -29 -13 -33 -5 -7 14 20 15 32 18 32 6z m4766 -53 c4 -45 -4
-31 -20 36 -6 23 -5 27 4 19 6 -6 13 -31 16 -55z m-2674 11 c39 -33 48 -48 53
-85 4 -25 2 -58 -5 -79 l-12 -36 -36 30 c-20 16 -40 26 -44 22 -4 -4 -13 -37
-20 -74 -7 -38 -17 -68 -23 -68 -6 0 -26 -31 -44 -68 -40 -82 -70 -125 -71
-100 0 9 -8 21 -17 27 -15 8 -16 12 -4 34 8 14 11 33 8 42 -5 13 -3 14 13 5
17 -9 20 -8 20 9 0 11 -4 23 -10 26 -21 13 -10 32 15 27 28 -5 33 9 10 28 -8
7 -15 17 -15 23 0 7 4 7 12 -1 7 -7 18 -12 25 -12 21 0 15 26 -9 44 -22 15
-22 16 6 4 26 -11 30 -10 40 6 6 11 19 28 29 38 44 46 -44 92 -101 53 -18 -14
-21 -14 -16 -1 3 8 12 17 20 20 8 3 14 14 14 23 0 35 69 103 105 103 6 0 31
-18 57 -40z m898 11 c29 -28 29 -29 10 -46 -19 -18 -20 -17 -20 7 0 14 -7 31
-15 38 -15 12 -20 30 -9 30 3 0 19 -13 34 -29z m-1616 -22 c-5 -8 -10 -6 -16
5 -5 9 -6 21 -2 27 5 8 10 6 16 -5 5 -9 6 -21 2 -27z m1470 6 c-8 -19 -18 -87
-22 -151 -6 -94 -10 -119 -24 -128 -14 -8 -24 -4 -51 22 -46 45 -89 44 -49 -1
15 -18 15 -20 1 -14 -9 3 -21 1 -26 -4 -7 -7 -25 -7 -54 0 -24 5 -56 12 -72
16 -26 5 -23 10 99 128 111 108 184 167 206 167 4 0 0 -16 -8 -35z m-3087
-190 c6 -115 9 -213 6 -217 -8 -15 -40 -8 -58 12 -10 11 -26 22 -36 25 -31 10
-33 43 -5 84 33 48 34 78 1 93 -34 15 -36 81 -3 115 22 24 22 25 5 55 -22 38
-10 50 43 46 l35 -3 12 -210z m4733 184 c0 -6 -4 -7 -10 -4 -5 3 -10 11 -10
16 0 6 5 7 10 4 6 -3 10 -11 10 -16z m-3869 -4 c1 -16 -16 -16 -36 0 -19 15
-19 15 8 13 15 -2 28 -7 28 -13z m1629 -83 l30 -82 -25 -6 c-16 -4 -35 0 -50
10 -21 14 -25 24 -25 65 0 56 18 117 31 104 5 -5 22 -46 39 -91z m-1530 78
c11 -7 7 -10 -17 -10 -17 0 -35 5 -38 10 -8 13 35 13 55 0z m2219 -53 c-4 -23
-8 -92 -9 -154 0 -101 -2 -111 -17 -106 -47 12 -52 25 -42 99 16 104 38 195
51 211 18 22 26 -2 17 -50z m-2485 31 c16 -61 8 -78 -76 -162 -46 -45 -94
-104 -108 -132 -39 -77 -166 -145 -243 -130 -35 7 -157 81 -157 95 0 8 321
244 384 281 30 18 158 65 187 69 4 1 9 -9 13 -21z m3556 13 c0 -5 3 -16 6 -25
4 -11 1 -16 -10 -16 -10 0 -16 9 -16 25 0 14 5 25 10 25 6 0 10 -4 10 -9z
m670 -19 c0 -15 -2 -15 -10 -2 -13 20 -13 33 0 25 6 -3 10 -14 10 -23z m-1361
-13 c6 -18 11 -35 11 -38 -1 -12 -40 42 -40 55 0 25 18 15 29 -17z m1491 21
c0 -5 -5 -10 -11 -10 -5 0 -7 5 -4 10 3 6 8 10 11 10 2 0 4 -4 4 -10z m-5170
-16 c0 -17 -22 -14 -28 4 -2 7 3 12 12 12 9 0 16 -7 16 -16z m1991 -8 c-15
-17 -5 -44 20 -51 22 -7 42 2 34 16 -4 5 0 9 9 9 11 0 12 -7 7 -27 -7 -25 -14
-29 -81 -40 -81 -13 -93 -21 -88 -52 3 -20 5 -20 32 -6 15 8 36 15 45 14 21
-1 -58 -38 -84 -39 l-20 -1 20 -15 c13 -10 32 -14 52 -10 21 3 33 0 37 -10 8
-22 32 -16 44 11 16 34 45 32 76 -6 48 -57 38 -68 -74 -88 -25 -5 -59 -12 -75
-16 -25 -5 -40 0 -79 27 -27 18 -58 49 -69 68 l-20 35 32 69 32 68 20 -21 c11
-11 22 -21 24 -21 6 0 75 67 75 74 0 3 -12 6 -27 6 -22 0 -25 2 -13 10 8 5 30
10 49 10 27 0 31 -3 22 -14z m2634 4 c-8 -13 -55 -13 -75 0 -11 7 -2 10 33 10
30 0 46 -4 42 -10z m105 0 c0 -5 -12 -10 -26 -10 -14 0 -23 4 -19 10 3 6 15
10 26 10 10 0 19 -4 19 -10z m-3619 -56 c51 -49 103 -142 113 -204 5 -29 2
-26 -13 16 -31 85 -52 117 -114 176 -34 32 -55 58 -48 58 6 0 34 -21 62 -46z
m3405 21 c-36 -19 -47 -19 -22 0 11 8 27 15 35 15 9 0 3 -7 -13 -15z m5939
-22 c-20 -47 -39 -68 -76 -83 -34 -14 -54 -4 -24 12 11 6 40 33 65 59 24 27
45 49 47 49 2 0 -4 -17 -12 -37z m-9422 -5 c34 -13 112 -119 138 -188 18 -47
28 -190 14 -190 -18 0 -66 34 -97 68 -72 80 -128 206 -128 289 0 48 1 49 73
21z m2307 -39 c0 -27 5 -49 10 -49 6 0 10 -15 10 -33 0 -18 7 -42 15 -55 14
-19 14 -24 -1 -47 l-17 -26 -14 38 c-19 50 -30 239 -14 229 6 -4 11 -29 11
-57z m-2415 -6 c9 -66 23 -108 57 -177 16 -32 27 -65 24 -72 -3 -9 3 -19 17
-25 26 -12 62 -57 53 -67 -4 -3 -22 9 -41 28 -23 23 -40 31 -54 27 -18 -4 -20
-2 -15 18 4 14 -6 44 -26 84 -35 70 -54 158 -45 202 10 43 23 35 30 -18z
m4135 31 c0 -8 -4 -12 -10 -9 -5 3 -10 10 -10 16 0 5 5 9 10 9 6 0 10 -7 10
-16z m110 6 c0 -5 -4 -10 -10 -10 -5 0 -10 5 -10 10 0 6 5 10 10 10 6 0 10 -4
10 -10z m-1454 -38 c-16 -31 -36 -50 -36 -35 0 14 41 76 46 70 3 -3 -2 -19
-10 -35z m704 34 c0 -2 -17 -15 -37 -27 -72 -44 -103 -73 -97 -91 3 -10 1 -18
-5 -18 -6 0 -11 13 -11 29 0 22 9 34 38 54 61 41 112 65 112 53z m315 -36 c3
-5 2 -10 -3 -10 -6 0 -8 -8 -5 -19 3 -10 0 -22 -6 -25 -7 -5 -11 5 -11 28 0
35 12 47 25 26z m62 -37 c-3 -10 -5 -4 -5 12 0 17 2 24 5 18 2 -7 2 -21 0 -30z
m-578 -32 c16 -44 32 -68 61 -91 27 -21 40 -40 40 -56 0 -13 6 -24 13 -24 8 0
18 -38 30 -120 10 -66 26 -144 37 -173 l20 -52 -32 37 c-18 20 -46 51 -61 69
-26 31 -30 32 -39 15 -8 -14 -5 -25 11 -47 25 -34 17 -38 -15 -8 l-23 21 -15
-37 c-9 -21 -16 -52 -16 -69 0 -17 -7 -40 -15 -50 -13 -17 -15 -17 -21 -3 -11
28 -24 19 -24 -17 0 -18 -7 -39 -15 -46 -13 -10 -15 -9 -15 8 0 36 -19 35 -58
-2 -20 -20 -57 -51 -82 -69 -28 -20 -56 -54 -75 -88 -26 -48 -91 -144 -117
-174 -5 -5 1 13 13 40 13 29 25 81 28 124 4 46 11 76 19 79 7 2 12 -5 12 -17
0 -37 39 -21 108 42 38 36 40 47 10 40 -27 -5 -22 0 63 64 47 35 59 50 76 100
34 96 37 129 14 167 -25 39 -27 69 -6 86 8 6 17 22 21 33 3 12 18 32 32 43
l26 22 -25 38 c-38 58 -40 69 -22 124 9 27 17 50 18 50 1 0 12 -27 24 -59z
m934 44 c-3 -9 -8 -14 -10 -11 -3 3 -2 9 2 15 9 16 15 13 8 -4z m-3721 -216
c3 -96 5 -175 3 -177 -5 -5 -46 17 -67 36 -16 13 -18 35 -18 173 0 192 2 198
44 166 l31 -24 7 -174z m623 211 c3 -5 -1 -10 -9 -10 -8 0 -18 5 -21 10 -3 6
1 10 9 10 8 0 18 -4 21 -10z m-740 -102 c-11 -177 -14 -208 -22 -223 -9 -15
-98 -86 -170 -137 -31 -21 -43 -25 -43 -14 0 8 17 24 38 37 80 47 110 71 122
97 20 44 28 130 19 216 -8 80 -8 81 19 103 15 12 31 22 35 23 5 0 6 -46 2
-102z m2291 46 c-3 -8 -11 -14 -18 -13 -10 0 -10 2 0 6 6 2 13 19 13 36 1 25
3 27 6 9 3 -13 2 -30 -1 -38z m-3576 28 c0 -5 -9 -17 -19 -26 -21 -19 -37 -7
-27 19 6 16 46 21 46 7z m1688 2 c26 -5 30 -11 35 -47 3 -22 15 -53 27 -69 19
-26 20 -29 4 -26 -13 2 -20 -5 -24 -25 -5 -26 -6 -27 -25 -13 -29 22 -45 19
-45 -9 0 -14 -5 -25 -11 -25 -6 0 -8 7 -5 16 4 11 -6 21 -40 35 l-45 20 24 42
c13 23 32 57 41 75 18 35 19 35 64 26z m908 -13 c5 -5 32 -14 59 -19 28 -6 84
-19 125 -30 41 -11 115 -23 163 -27 l88 -7 -36 -35 c-22 -21 -40 -52 -47 -79
-11 -40 -28 -60 -28 -33 0 6 -7 9 -15 5 -8 -3 -20 0 -27 7 -7 7 -23 12 -36 11
-12 -1 -25 2 -27 6 -3 5 -14 6 -25 3 -13 -3 -26 1 -33 10 -7 10 -24 15 -42 14
-16 -2 -36 3 -43 10 -7 6 -38 12 -70 13 -95 1 -94 1 -87 28 4 17 0 29 -16 43
-28 24 -36 24 -50 -2 -8 -17 -8 -23 1 -29 17 -10 7 -87 -13 -108 -12 -12 -21
-12 -48 -3 -18 6 -34 10 -35 8 -2 -2 0 -18 5 -35 8 -25 7 -32 -5 -32 -8 0 -14
10 -14 26 0 16 -5 24 -12 22 -21 -7 -20 -43 2 -63 20 -18 27 -45 13 -45 -5 0
-21 10 -37 23 l-28 23 37 69 c41 78 44 82 65 87 14 3 17 -2 19 -47 2 -40 17
-29 28 20 12 51 -1 71 -37 60 -11 -3 -20 -4 -20 0 0 16 38 61 74 86 31 23 50
29 91 29 28 0 55 -4 61 -9z m1218 -26 c3 -9 18 -15 35 -15 16 0 33 -4 36 -10
3 -5 32 -10 63 -11 31 0 66 -4 77 -8 16 -6 12 -9 -20 -15 -22 -4 -46 -12 -53
-18 -13 -11 -203 5 -270 22 -18 5 -47 5 -65 -1 l-32 -8 33 29 c26 24 42 30 80
31 26 1 58 5 72 9 36 12 37 11 44 -5z m666 -40 c10 -12 9 -15 -8 -15 -21 0
-32 -24 -32 -74 0 -21 -4 -27 -15 -22 -10 3 -16 -2 -20 -17 -11 -56 -14 -58
-10 -9 2 29 0 52 -5 52 -13 0 -13 40 0 60 8 12 10 12 16 -3 9 -25 20 -21 34
13 14 34 22 37 40 15z m-3630 -5 c0 -5 -5 -10 -11 -10 -5 0 -7 5 -4 10 3 6 8
10 11 10 2 0 4 -4 4 -10z m3921 -57 c16 -10 29 -21 29 -26 0 -5 7 -7 15 -4 8
4 17 2 20 -3 10 -16 23 -11 30 10 9 29 73 54 103 41 21 -10 21 -13 9 -43 -16
-39 -66 -70 -158 -98 -90 -27 -94 -26 -71 13 11 17 23 43 27 56 7 22 5 23 -19
17 -26 -6 -26 -6 -25 51 1 32 4 46 6 31 3 -17 15 -34 34 -45z m266 35 c-3 -8
-6 -5 -6 6 -1 11 2 17 5 13 3 -3 4 -12 1 -19z m-3577 -33 c0 -11 -5 -27 -10
-35 -7 -11 -10 -1 -10 35 0 36 3 46 10 35 5 -8 10 -24 10 -35z m-1616 -44 c36
-51 55 -102 77 -200 25 -114 24 -134 -8 -172 -16 -18 -26 -41 -25 -52 2 -12
-1 -17 -7 -13 -6 4 -11 18 -11 31 0 39 -59 311 -85 394 -14 42 -25 80 -25 84
0 15 60 -37 84 -72z m810 28 c4 -29 10 -65 13 -80 4 -22 2 -29 -11 -29 -11 0
-16 9 -16 28 0 15 -3 51 -6 80 -4 32 -3 52 3 52 6 0 13 -23 17 -51z m-724 -41
c-1 -58 -2 -61 -15 -44 -15 20 -20 63 -9 90 13 34 24 13 24 -46z m3867 51 c8
-8 47 -10 122 -7 77 3 108 1 104 -6 -16 -30 -43 -50 -88 -71 -28 -12 -85 -47
-128 -78 -136 -97 -326 -183 -447 -201 l-45 -7 36 33 c20 18 64 57 97 86 72
62 88 89 98 163 7 58 17 77 49 89 31 13 189 12 202 -1z m1293 -13 c0 -25 -31
-116 -39 -116 -13 0 -23 32 -13 39 18 12 42 70 35 87 -4 12 -3 15 5 10 7 -4
12 -13 12 -20z m-1731 -22 c2 -10 11 -29 21 -42 27 -33 36 -117 16 -138 -15
-14 -16 -11 -16 38 0 35 -8 71 -25 106 -29 62 -29 65 -12 60 6 -3 14 -13 16
-24z m-3361 -27 c5 -24 -15 -21 -28 4 -10 18 -9 20 7 17 10 -2 19 -11 21 -21z
m2006 -20 c-8 -22 -14 -51 -14 -66 0 -36 -36 -101 -72 -130 -24 -19 -28 -28
-23 -51 5 -22 2 -31 -14 -40 -17 -9 -20 -8 -15 5 7 18 -9 20 -35 3 -28 -17
-48 3 -88 90 -24 52 -31 77 -25 90 5 9 13 35 16 57 4 22 17 50 29 63 20 21 28
22 138 20 l117 -2 -14 -39z m146 28 c0 -26 -40 -98 -74 -133 -28 -30 -86 -69
-86 -58 0 2 13 29 29 59 16 30 32 75 37 99 l8 43 7 -44 c5 -24 11 -46 14 -50
9 -9 22 18 29 60 4 25 12 39 21 39 8 0 15 -7 15 -15z m915 -4 c28 -11 63 -24
79 -30 l29 -12 -23 -24 -22 -24 -67 25 c-80 30 -86 36 -72 63 14 26 14 26 76
2z m-2469 -13 c-4 -13 -10 -53 -13 -90 -4 -53 -3 -68 8 -68 10 0 10 -3 2 -11
-6 -6 -9 -18 -6 -25 4 -11 -5 -14 -37 -14 -57 0 -72 11 -100 69 -28 60 -29 57
68 117 79 49 87 51 78 22z m124 -9 c0 -6 -4 -7 -10 -4 -5 3 -10 11 -10 16 0 6
5 7 10 4 6 -3 10 -11 10 -16z m-599 -10 c-13 -11 -27 -17 -30 -13 -7 7 28 34
43 34 6 -1 0 -10 -13 -21z m122 5 c15 -5 18 -15 15 -40 -2 -19 0 -34 6 -34 5
0 18 -8 28 -17 17 -15 20 -15 28 -3 8 13 10 12 10 -2 0 -10 -4 -18 -10 -18 -5
0 -10 -9 -10 -21 0 -20 -1 -20 -30 -2 -17 10 -34 29 -37 43 -3 14 -14 42 -24
62 -22 44 -23 52 -6 44 6 -3 20 -9 30 -12z m-195 -40 c8 -6 24 -153 19 -168
-8 -21 -63 -2 -83 29 -22 33 -31 134 -13 145 11 7 67 3 77 -6z m682 -87 c18
-20 35 -28 59 -29 30 -1 32 -3 16 -14 -16 -12 -16 -15 11 -42 16 -15 38 -33
49 -39 36 -20 11 -22 -32 -3 -80 35 -164 132 -162 187 0 15 3 14 17 -7 9 -14
28 -37 42 -53z m3251 -20 c-5 -48 -14 -94 -21 -102 -24 -28 -168 -125 -226
-152 -36 -16 -82 -28 -125 -31 -62 -4 -70 -2 -111 25 -23 17 -56 38 -73 48
l-29 18 87 23 c105 28 156 53 222 108 40 33 274 159 283 151 1 -1 -2 -41 -7
-88z m-2855 73 c15 -6 24 -13 22 -16 -8 -8 -58 7 -58 17 0 11 3 11 36 -1z
m1549 -11 c3 -4 1 -11 -5 -14 -11 -7 -40 11 -40 25 0 10 38 1 45 -11z m-2903
-48 c-25 -34 -71 -39 -97 -11 -19 21 -19 21 7 15 30 -8 82 15 93 42 8 17 8 17
13 -1 2 -10 -5 -30 -16 -45z m338 34 c0 -8 -4 -17 -10 -20 -6 -4 -10 5 -10 20
0 15 4 24 10 20 6 -3 10 -12 10 -20z m4917 -69 c-10 -15 -25 -23 -46 -23 -16
0 -29 3 -27 6 2 3 6 15 10 26 6 16 9 17 17 5 8 -13 12 -12 24 4 8 11 15 29 15
41 0 38 15 38 18 0 2 -20 -3 -46 -11 -59z m-2433 68 c30 -12 16 -24 -28 -24
-43 0 -63 10 -49 24 8 8 56 8 77 0z m431 -114 c14 -15 41 -36 58 -45 19 -10
42 -37 55 -64 l24 -46 -36 41 c-19 23 -57 58 -84 78 -54 42 -77 74 -86 126 -6
33 -5 32 18 -13 13 -27 36 -61 51 -77z m-585 96 c0 -15 -18 -31 -26 -23 -7 7
7 37 17 37 5 0 9 -6 9 -14z m815 -1 c43 -8 82 -12 86 -9 17 10 9 -23 -8 -38
-27 -23 -63 -28 -98 -14 -30 13 -65 50 -65 68 0 10 -5 11 85 -7z m-573 -27
c-7 -7 -12 -8 -12 -2 0 6 3 14 7 17 3 4 9 5 12 2 2 -3 -1 -11 -7 -17z m471
-43 c23 -10 21 -19 -7 -34 -19 -10 -28 -11 -47 -1 -28 15 -89 70 -89 82 0 6
55 -12 143 -47z m943 17 c-10 -10 -29 15 -21 28 6 9 10 8 17 -4 6 -10 7 -20 4
-24z m-1809 2 c33 -22 45 -25 86 -19 36 4 53 2 70 -11 19 -14 19 -15 2 -9 -11
5 -51 8 -90 7 -67 -2 -71 0 -93 28 -29 37 -24 38 25 4z m-2132 0 c-21 -16 -46
-15 -52 1 -1 6 14 11 35 12 35 2 36 1 17 -13z m2428 9 c-18 -2 -48 -2 -65 0
-18 2 -4 4 32 4 36 0 50 -2 33 -4z m-2288 -28 c27 -9 113 -27 190 -40 150 -27
305 -70 305 -85 0 -5 -9 -12 -20 -15 -16 -5 -20 -15 -20 -51 0 -39 -2 -44 -23
-44 -84 0 -505 145 -483 167 3 3 28 -5 56 -19 27 -14 50 -22 50 -18 0 5 16 4
35 0 19 -4 37 -5 40 0 12 19 -26 40 -100 53 -44 9 -93 20 -110 27 -29 11 -29
12 -11 26 24 17 29 17 91 -1z m3075 12 c0 -2 -12 -14 -27 -28 l-28 -24 24 28
c23 25 31 32 31 24z m-830 -23 c0 -2 -15 -4 -32 -3 -27 0 -29 2 -13 8 18 8 45
4 45 -5z m272 -21 c14 -16 33 -40 43 -55 9 -15 21 -26 25 -23 5 3 14 -12 21
-32 7 -21 27 -59 46 -85 23 -33 33 -59 33 -85 1 -59 26 -189 51 -258 30 -85
24 -95 -49 -95 -68 0 -156 39 -181 80 -15 24 -15 25 4 9 33 -27 64 -40 116
-48 45 -7 51 -6 58 11 7 20 -10 146 -23 167 -4 6 -9 31 -10 56 -2 27 -12 59
-29 83 -14 22 -32 55 -40 73 -8 19 -22 43 -30 53 -14 19 -15 19 -21 -1 -5 -15
-12 -19 -27 -16 -20 6 -21 2 -18 -45 4 -54 -5 -61 -16 -11 -5 20 1 53 16 99
23 73 21 99 -11 107 -20 5 -26 23 -13 36 13 13 29 7 55 -20z m1704 -3 c-4 -22
-1 -32 10 -37 12 -5 12 -8 -6 -20 -22 -16 -27 -39 -8 -45 6 -2 -8 -22 -32 -44
-115 -102 -127 -119 -144 -193 -18 -77 -21 -238 -7 -289 13 -45 4 -65 -25 -58
-22 6 -24 3 -23 -31 0 -21 4 -47 8 -58 9 -22 -6 -75 -20 -75 -5 0 -8 3 -8 8 4
25 -3 62 -11 62 -6 0 -18 -16 -27 -35 -9 -19 -20 -35 -25 -35 -19 0 -5 42 34
100 23 36 47 86 54 119 22 91 16 298 -11 403 -6 24 -3 29 29 42 19 8 44 29 55
47 l19 32 4 -29 c7 -68 90 -14 102 67 13 82 18 99 28 99 6 0 8 -12 4 -30z
m-1831 10 c3 -6 -1 -7 -9 -4 -18 7 -21 14 -7 14 6 0 13 -4 16 -10z m-2650 -50
c0 -7 -6 -15 -12 -17 -8 -3 -13 4 -13 17 0 13 5 20 13 18 6 -3 12 -11 12 -18z
m2665 -8 c0 -16 -7 -37 -15 -48 -14 -18 -16 -18 -28 -2 -13 17 -46 21 -132 15
-28 -1 -44 -8 -52 -22 -11 -18 -12 -17 -13 16 0 19 5 40 12 47 14 14 107 15
163 2 32 -8 42 -7 50 5 14 20 15 19 15 -13z m560 13 c-7 -8 -20 -15 -28 -15
-13 0 -12 3 4 15 25 19 40 19 24 0z m-840 -5 c0 -5 -12 -17 -26 -26 -22 -15
-25 -23 -20 -48 4 -17 8 -42 9 -56 2 -21 8 -26 36 -28 19 -2 62 4 97 14 158
42 237 -22 248 -201 6 -97 -7 -72 -19 38 -7 63 -35 106 -87 133 -39 20 -107
20 -146 0 -17 -9 -36 -16 -42 -16 -6 0 -32 -14 -56 -31 -31 -21 -44 -36 -39
-46 4 -13 3 -14 -9 -3 -13 10 -20 8 -42 -9 -15 -12 -33 -21 -41 -21 -7 0 -33
-10 -56 -22 -23 -12 -46 -22 -52 -23 -5 -1 -31 -11 -57 -22 -56 -26 -148 -25
-177 1 -13 12 -27 15 -45 10 -15 -3 -26 -2 -26 4 0 19 89 34 124 21 27 -10 47
-9 107 6 80 19 102 31 81 44 -10 6 -6 20 19 62 17 29 40 65 50 78 11 13 19 32
19 42 0 11 7 19 15 19 8 0 15 9 15 19 0 11 4 31 10 45 8 23 15 26 60 26 27 0
50 -4 50 -10z m-480 -50 c4 0 13 7 20 15 20 24 33 18 26 -11 -6 -22 -4 -25 10
-20 12 5 15 2 9 -11 -11 -29 -18 -73 -12 -73 3 0 20 20 37 45 26 38 33 43 49
33 14 -8 29 -7 67 6 46 16 49 15 67 -3 22 -22 19 -47 -13 -99 -47 -75 -115
-88 -220 -40 -30 14 -63 28 -72 31 -10 4 -18 11 -18 17 0 6 -11 15 -25 20 -31
12 -35 55 -7 64 11 4 30 18 43 32 19 21 25 23 27 10 2 -9 7 -16 12 -16z m3106
-64 c-20 -73 -22 -88 -10 -93 16 -6 19 -29 5 -37 -5 -4 -16 -4 -23 -1 -11 5
-13 18 -7 63 6 51 47 168 55 159 2 -2 -7 -43 -20 -91z m-5026 52 c0 -5 -6 -8
-14 -8 -9 0 -12 7 -9 21 4 16 8 17 14 7 5 -7 9 -16 9 -20z m1036 6 c29 -3 60
-11 70 -18 15 -12 4 -13 -73 -9 -67 4 -92 2 -98 -7 -13 -21 35 -50 80 -48 116
6 152 -8 87 -33 -24 -9 -301 -29 -311 -23 -2 2 4 37 14 79 l17 76 81 -6 c45
-3 105 -8 133 -11z m2299 -45 c11 -17 -1 -21 -15 -4 -8 9 -8 15 -2 15 6 0 14
-5 17 -11z m-3340 -301 c25 -147 45 -271 45 -277 0 -6 -20 0 -45 12 -53 26
-55 32 -91 249 -13 84 -27 167 -30 183 -6 28 -5 29 9 11 9 -12 20 -17 31 -13
12 5 16 21 17 74 1 105 13 58 64 -239z m155 282 c27 -27 26 -50 -1 -43 -17 5
-39 38 -39 59 0 11 22 2 40 -16z m3771 -9 c-30 -42 -79 -81 -102 -81 -11 0
-30 -11 -43 -23 -24 -24 -36 -75 -51 -219 -4 -32 -9 -58 -13 -58 -7 0 -107
247 -107 264 0 5 29 17 65 26 36 9 110 40 165 68 55 28 101 51 103 51 2 1 -6
-12 -17 -28z m-678 12 c-7 -2 -21 -2 -30 0 -10 3 -4 5 12 5 17 0 24 -2 18 -5z
m-3215 -21 c2 -7 -2 -10 -12 -6 -9 3 -16 11 -16 16 0 13 23 5 28 -10z m245 4
c16 -4 27 -2 27 4 0 6 5 8 10 5 6 -3 10 -20 10 -37 0 -17 7 -40 17 -50 15 -17
15 -18 -12 -18 -21 0 -26 4 -21 17 8 20 -46 73 -75 73 -10 0 -19 5 -19 11 0 6
8 8 18 6 9 -3 29 -8 45 -11z m3127 -12 c0 -17 -22 -14 -28 4 -2 7 3 12 12 12
9 0 16 -7 16 -16z m-2854 -24 c5 -5 46 -12 92 -16 78 -7 82 -8 82 -31 0 -22
-1 -23 -23 -8 -13 8 -59 22 -102 31 -89 18 -127 33 -84 34 14 0 29 -4 35 -10z
m-767 -36 c49 -41 54 -125 10 -139 -45 -15 -100 85 -79 141 12 31 31 30 69 -2z
m1401 -22 c0 -14 -96 -112 -109 -112 -3 0 -15 7 -25 15 -11 8 -35 15 -53 15
-34 0 -45 13 -19 23 8 3 16 16 18 29 2 18 17 27 83 49 72 24 81 25 93 11 6 -9
12 -22 12 -30z m2061 -8 c8 -5 25 -43 37 -85 33 -111 20 -156 -85 -282 -43
-51 -88 -79 -169 -103 -58 -17 -194 -28 -194 -16 0 5 -15 9 -32 10 -57 2 -118
14 -118 23 0 5 -7 9 -15 9 -9 0 -29 7 -45 15 -27 14 -30 14 -30 0 0 -10 -9
-15 -26 -15 -19 0 -25 4 -20 15 9 23 -24 18 -66 -10 -50 -34 -58 -31 -22 6
l29 31 -35 -7 c-31 -7 -33 -6 -21 9 16 19 1 22 -29 6 -16 -8 -18 -8 -14 5 4
10 0 15 -12 16 -11 0 -14 3 -6 6 6 2 12 11 12 19 0 16 -26 19 -35 4 -11 -17
-35 -12 -28 6 5 13 2 15 -15 9 -13 -3 -22 -2 -22 4 0 5 9 13 20 16 11 3 20 13
20 21 0 17 -5 17 -31 3 -19 -10 -19 -9 -9 10 6 12 7 21 1 21 -5 0 -7 10 -3 22
4 18 2 20 -17 15 -19 -5 -20 -3 -9 10 11 14 10 16 -14 11 -16 -3 -28 -2 -28 2
0 9 82 61 150 95 30 15 73 40 95 56 27 19 58 31 97 35 54 6 56 5 60 -17 2 -15
12 -25 28 -29 23 -6 25 -10 22 -53 -2 -25 -1 -51 3 -57 4 -7 8 -31 9 -54 1
-24 10 -55 21 -71 11 -15 27 -39 36 -53 26 -45 103 -84 172 -89 86 -7 160 22
235 92 83 76 107 129 107 232 0 79 -15 115 -23 56 -5 -41 -12 -41 -12 -1 0 20
-7 53 -16 74 l-16 39 24 -26 c13 -14 31 -30 39 -35z m-3111 14 c17 -12 30 -28
30 -35 0 -7 9 -18 20 -25 11 -7 20 -20 20 -30 0 -9 10 -24 22 -33 21 -14 24
-14 34 0 15 20 24 19 24 -4 0 -47 -56 -27 -91 33 -10 18 -29 38 -42 45 -20 10
-63 71 -51 71 3 0 18 -10 34 -22z m130 7 c10 -12 9 -15 -8 -15 -11 0 -22 7
-26 15 -3 9 0 15 8 15 7 0 19 -7 26 -15z m-65 -4 c7 -12 -12 -24 -25 -16 -11
7 -4 25 10 25 5 0 11 -4 15 -9z m370 -11 c3 -5 1 -10 -4 -10 -6 0 -11 5 -11
10 0 6 2 10 4 10 3 0 8 -4 11 -10z m2871 0 c19 0 94 -69 94 -86 0 -8 -6 -14
-14 -14 -8 0 -20 -16 -27 -35 -15 -40 -24 -43 -39 -16 -13 25 -13 34 0 26 6
-3 10 0 10 9 0 8 -24 40 -52 72 l-53 57 34 -6 c18 -4 40 -7 47 -7z m-3366 -10
c0 -5 -2 -10 -4 -10 -3 0 -8 5 -11 10 -3 6 -1 10 4 10 6 0 11 -4 11 -10z m-55
-9 c3 -5 1 -12 -5 -16 -5 -3 -10 1 -10 9 0 18 6 21 15 7z m2788 -144 c3 -38 1
-65 -3 -60 -11 11 -30 118 -30 167 l1 41 13 -40 c8 -22 16 -71 19 -108z m770
96 c34 -68 70 -163 65 -168 -2 -3 -19 31 -37 75 -18 44 -44 94 -58 110 -19 23
-21 30 -9 30 9 0 26 -21 39 -47z m-2873 1 c0 -3 -7 -1 -15 6 -8 7 -15 17 -15
22 0 5 7 3 15 -6 8 -8 15 -18 15 -22z m2690 11 c13 -14 21 -27 18 -30 -2 -3
-17 9 -33 25 -16 17 -24 30 -19 30 6 0 21 -11 34 -25z m-3337 -26 c-7 -24 -8
-22 -17 15 -6 25 -5 28 7 17 8 -6 13 -21 10 -32z m258 21 c13 -10 20 -19 16
-20 -11 0 -67 29 -67 35 0 12 30 3 51 -15z m559 -9 c0 -23 -25 -46 -35 -32 -7
13 12 51 25 51 6 0 10 -8 10 -19z m408 -31 c12 -24 22 -56 22 -70 0 -35 -19
-100 -29 -100 -24 0 -59 146 -47 195 9 36 27 28 54 -25z m-1128 15 c0 -1 -9
-5 -19 -8 -13 -3 -18 -1 -14 9 4 10 33 10 33 -1z m90 -5 c0 -5 -2 -10 -4 -10
-3 0 -8 5 -11 10 -3 6 -1 10 4 10 6 0 11 -4 11 -10z m3119 -110 c0 -35 0 -35
-13 10 -7 25 -16 56 -20 70 -5 18 -1 15 13 -10 11 -19 20 -51 20 -70z m-2331
77 c7 -8 7 -17 -2 -30 -16 -21 -47 -23 -41 -2 3 8 7 22 10 30 5 18 19 19 33 2z
m2382 -7 c8 -16 8 -18 -4 -14 -17 6 -30 34 -16 34 5 0 14 -9 20 -20z m-3334
-18 c-4 -3 -14 2 -24 12 -16 18 -16 18 6 6 13 -6 21 -14 18 -18z m522 16 c-5
-15 -55 -35 -64 -25 -4 4 -1 13 6 22 15 18 64 21 58 3z m534 -51 c-4 -57 -22
-71 -22 -17 0 27 18 87 23 79 2 -2 1 -30 -1 -62z m2073 2 c-11 -33 -34 -69
-64 -100 -46 -48 -76 -64 -65 -34 4 8 9 15 13 15 4 0 26 16 49 35 30 26 46 51
58 90 10 30 19 53 22 51 2 -3 -4 -28 -13 -57z m-2845 -6 c0 -12 -4 -23 -10
-23 -13 0 -30 34 -30 61 0 21 1 22 20 4 11 -10 20 -29 20 -42z m130 43 c0 -3
-4 -8 -10 -11 -5 -3 -10 -1 -10 4 0 6 5 11 10 11 6 0 10 -2 10 -4z m3072 -13
c20 -18 24 -73 8 -104 -13 -24 -30 -25 -30 -1 0 11 -9 27 -20 37 -22 20 -26
55 -8 73 16 16 28 15 50 -5z m-133 -136 c1 -71 -15 -49 -22 30 -4 37 -9 79
-12 93 -3 14 3 3 14 -25 11 -27 20 -72 20 -98z m-352 111 c-3 -8 -6 -5 -6 6
-1 11 2 17 5 13 3 -3 4 -12 1 -19z m361 -3 c-3 -3 -9 2 -12 12 -6 14 -5 15 5
6 7 -7 10 -15 7 -18z m-2608 -9 c0 -14 -12 -38 -26 -53 l-26 -28 6 34 c5 29
30 71 43 71 1 0 3 -11 3 -24z m-196 -5 c16 -18 16 -21 1 -50 -18 -36 -26 -38
-43 -11 -16 26 -36 26 -29 -1 5 -17 3 -18 -9 -8 -9 7 -13 21 -10 33 3 11 0 26
-6 33 -8 10 -7 13 5 13 8 0 17 -7 21 -15 8 -22 36 -18 36 5 0 25 12 25 34 1z
m2824 -56 c0 -16 -2 -15 -8 5 -11 34 -11 60 0 35 5 -11 8 -29 8 -40z m-2995
-34 c21 -13 36 -25 33 -28 -7 -7 -86 37 -86 48 0 12 3 11 53 -20z m3186 -178
c1 -29 -2 -53 -6 -53 -5 0 -37 15 -73 33 -52 26 -65 37 -64 55 0 12 1 48 2 80
l2 59 30 -5 c20 -3 38 3 57 18 l28 22 12 -79 c6 -43 12 -102 12 -130z m-2921
114 c-2 -63 1 -88 12 -101 9 -12 14 -41 14 -85 0 -88 -7 -98 -46 -66 -16 14
-36 25 -44 25 -7 0 -16 12 -20 28 -10 48 -13 52 -38 52 -28 0 -41 -27 -31 -61
6 -17 3 -20 -17 -17 -18 2 -22 8 -19 28 2 14 4 66 5 116 1 76 -2 95 -17 112
-10 11 -14 23 -9 26 16 10 55 -29 67 -65 13 -36 37 -48 60 -29 21 18 18 47 -6
64 l-21 14 24 13 c12 7 37 16 53 20 17 4 31 7 33 8 2 1 2 -37 0 -82z m-340 12
c-16 -10 -43 15 -33 31 5 8 12 6 26 -6 15 -13 16 -19 7 -25z m3004 -25 c11 -3
30 2 45 11 l26 17 -7 -38 c-10 -56 -58 -154 -96 -198 -44 -49 -149 -129 -335
-253 -165 -109 -195 -127 -151 -90 19 16 27 31 23 41 -5 12 0 16 19 16 31 0
73 21 98 49 16 17 17 23 6 36 -12 14 -10 15 14 9 25 -6 27 -4 22 14 -5 15 1
25 24 42 41 29 47 20 14 -19 -14 -18 -24 -34 -22 -37 11 -10 168 104 236 172
56 55 73 79 70 96 -4 33 -52 36 -91 8 -35 -27 -34 -22 16 52 24 34 41 73 45
100 l6 43 9 -32 c5 -18 18 -35 29 -39z m626 11 c-1 -27 -1 -28 -5 -5 -3 14 -9
30 -14 36 -5 6 -6 14 -2 18 11 10 23 -17 21 -49z m-281 -17 c-3 -7 -5 -2 -5
12 0 14 2 19 5 13 2 -7 2 -19 0 -25z m-3367 -4 c0 -14 -3 -14 -15 -4 -8 7 -15
14 -15 16 0 2 7 4 15 4 8 0 15 -7 15 -16z m4050 -44 c0 -5 -4 -10 -10 -10 -5
0 -10 5 -10 10 0 6 5 10 10 10 6 0 10 -4 10 -10z m-661 -87 c1 -7 -3 -13 -9
-13 -5 0 -10 15 -9 33 0 27 2 29 9 12 5 -11 9 -26 9 -32z m-239 17 c8 -5 11
-10 5 -10 -5 0 -17 5 -25 10 -8 5 -10 10 -5 10 6 0 17 -5 25 -10z m380 -17
c-1 -24 -2 -26 -11 -10 -5 9 -7 22 -4 27 10 17 15 11 15 -17z m-2319 -68 c12
-45 6 -142 -10 -158 -8 -8 -9 7 -5 49 5 42 2 77 -10 116 -9 31 -16 60 -16 65
1 18 31 -34 41 -72z m1697 -10 c-37 -35 -76 -69 -88 -75 -42 -23 -3 27 67 85
91 75 103 69 21 -10z m219 49 c36 -14 43 -21 43 -45 0 -27 22 -59 42 -59 5 0
18 10 28 23 15 18 21 20 31 10 10 -10 10 -16 1 -25 -7 -7 -12 -23 -12 -37 0
-44 -11 -52 -48 -39 -20 8 -32 19 -32 31 0 10 -9 30 -21 46 -30 41 -74 37
-129 -12 -42 -39 -42 -39 -35 -92 6 -48 4 -55 -15 -65 -12 -7 -33 -9 -47 -5
l-26 6 22 23 c23 25 27 41 10 51 -17 11 -49 -26 -49 -56 0 -15 -4 -31 -10 -34
-16 -10 -12 -23 10 -30 12 -4 27 -2 35 5 10 8 15 8 20 0 4 -6 13 -9 21 -6 8 3
14 -1 14 -9 0 -8 9 -23 21 -34 19 -18 20 -22 8 -58 -11 -32 -14 -35 -17 -15
-5 33 -28 38 -70 15 -40 -22 -138 -25 -136 -4 1 6 2 40 3 76 l1 64 78 59 c108
83 161 137 183 188 11 24 23 44 27 44 3 0 26 -7 49 -16z m-1480 -16 c-3 -8 -6
-5 -6 6 -1 11 2 17 5 13 3 -3 4 -12 1 -19z m1757 -40 c10 -85 8 -94 -20 -107
-32 -14 -37 -11 -31 26 4 27 4 27 12 5 4 -13 13 -21 19 -19 14 5 21 47 7 47
-21 0 -31 37 -20 69 16 45 25 38 33 -21z m71 -7 c-15 -14 -24 -19 -19 -11 25
42 39 59 43 49 2 -6 -9 -23 -24 -38z m-1770 -12 c54 -95 69 -135 73 -199 2
-36 9 -70 14 -77 5 -7 6 -18 1 -26 -11 -20 -61 -77 -66 -77 -3 0 -7 13 -10 30
-4 16 -18 47 -32 69 -30 45 -55 120 -55 164 0 29 40 170 47 164 1 -2 14 -23
28 -48z m-1545 -14 c25 -30 -24 -205 -53 -188 -7 3 -22 13 -34 21 l-22 14 29
55 c17 31 30 63 30 72 0 17 18 41 31 41 4 0 12 -7 19 -15z m155 -16 c19 -17
35 -36 35 -43 0 -16 -72 -186 -79 -186 -3 0 -15 17 -26 38 -11 20 -30 41 -42
47 -13 5 -23 13 -23 16 0 21 74 159 86 159 7 0 29 -14 49 -31z m1075 -1 c48
-3 55 -5 52 -23 -5 -37 -5 -70 3 -342 9 -305 5 -291 82 -277 25 4 35 3 28 -4
-5 -5 -46 -15 -90 -21 -85 -12 -110 -25 -85 -42 12 -8 11 -9 -5 -7 -27 4 -31
38 -45 393 -6 159 -14 303 -17 320 -5 25 -4 28 8 18 8 -6 39 -13 69 -15z
m1907 -93 c-4 -8 -11 -15 -17 -15 -6 0 -6 7 2 20 14 22 24 19 15 -5z m-122
-25 c-3 -5 -11 -10 -16 -10 -6 0 -7 5 -4 10 3 6 11 10 16 10 6 0 7 -4 4 -10z
m-3186 -96 c32 -66 22 -88 -11 -27 -27 49 -37 90 -19 79 5 -3 18 -27 30 -52z
m2608 50 c-3 -3 -12 -4 -19 -1 -8 3 -5 6 6 6 11 1 17 -2 13 -5z m651 -31 c-21
-20 -40 -34 -44 -30 -8 8 53 67 69 67 7 0 -5 -17 -25 -37z m-3181 2 c2 -6 -3
-20 -12 -30 -13 -17 -16 -18 -25 -5 -18 27 -12 52 12 48 12 -2 23 -8 25 -13z
m143 -4 c14 -28 12 -97 -4 -110 -11 -9 -16 0 -26 48 -12 57 -9 81 10 81 5 0
14 -9 20 -19z m2285 -1 c8 -13 -5 -13 -25 0 -13 8 -13 10 2 10 9 0 20 -4 23
-10z m-1367 -90 l0 -55 -14 34 c-11 23 -13 47 -8 75 6 34 8 37 15 21 4 -11 8
-45 7 -75z m1612 60 c0 -11 -7 -20 -15 -20 -15 0 -21 21 -8 33 12 13 23 7 23
-13z m416 -48 c-11 -10 -14 3 -7 38 l6 35 3 -33 c2 -19 1 -36 -2 -40z m-69 42
c-3 -3 -12 -4 -19 -1 -8 3 -5 6 6 6 11 1 17 -2 13 -5z m-1418 -49 c20 -42 29
-115 14 -115 -3 0 -15 7 -25 17 -14 12 -18 31 -18 80 0 34 2 63 4 63 2 0 13
-20 25 -45z m775 14 c-6 -11 -261 -180 -371 -247 -60 -36 -71 -27 -19 14 40
32 377 243 389 244 5 0 5 -5 1 -11z m225 -65 c26 -33 26 -44 2 -44 -11 0 -21
9 -25 23 -3 13 -16 29 -28 35 -23 11 -23 11 4 11 17 1 34 -8 47 -25z m80 -8
c-3 -3 -11 5 -18 17 -13 21 -12 21 5 5 10 -10 16 -20 13 -22z m-213 -38 c-1
-16 9 -27 32 -38 33 -16 33 -16 13 -35 -40 -35 -13 -84 30 -56 38 23 18 -6
-26 -39 -25 -19 -45 -41 -45 -50 0 -15 -21 -25 -89 -45 -23 -7 -23 -7 5 29 18
22 38 36 52 36 26 0 29 25 7 56 -12 19 -12 24 0 40 21 28 19 54 -6 54 -33 0
-55 -17 -83 -64 -19 -32 -36 -48 -62 -56 -35 -12 -36 -13 -30 -51 4 -28 2 -46
-10 -64 -15 -23 -18 -23 -37 -10 -31 21 -46 19 -57 -10 -11 -28 -25 -32 -37
-10 -8 13 -19 10 -73 -19 -35 -19 -68 -43 -72 -53 -6 -14 -7 -13 -5 7 1 18 12
30 39 42 35 17 118 120 118 147 0 19 -19 12 -36 -14 -9 -14 -23 -25 -30 -25
-8 0 -22 -9 -31 -20 -10 -11 -27 -20 -40 -20 -22 0 -24 -4 -61 -90 -11 -25
-11 -25 -11 -2 -2 63 20 85 195 192 153 93 328 190 344 190 4 0 6 -10 6 -22z
m44 12 c0 -5 -2 -10 -4 -10 -3 0 -8 5 -11 10 -3 6 -1 10 4 10 6 0 11 -4 11
-10z m265 -10 c3 -5 2 -10 -4 -10 -5 0 -13 5 -16 10 -3 6 -2 10 4 10 5 0 13
-4 16 -10z m-1169 -95 c7 -37 -4 -82 -16 -69 -4 5 -10 35 -13 67 -5 49 -4 57
8 47 8 -7 17 -27 21 -45z m1205 -5 c17 10 19 7 19 -30 0 -22 -5 -40 -10 -40
-6 0 -8 11 -4 25 11 43 -22 30 -57 -22 -40 -59 -52 -67 -61 -43 -9 23 5 79 16
62 10 -17 36 -15 36 2 0 8 5 27 11 43 9 25 12 26 20 10 8 -13 14 -15 30 -7z
m-157 -17 c-9 -37 -14 -41 -27 -22 -7 9 -18 14 -25 11 -11 -3 -12 0 -3 17 7
13 21 21 37 21 22 0 24 -3 18 -27z m-1552 -10 c38 -44 50 -151 23 -203 -31
-60 -92 -78 -121 -35 -41 62 -25 175 33 225 39 35 45 36 65 13z m77 -123 c0
-36 -3 -70 -7 -77 -4 -6 -8 32 -8 84 0 53 3 88 7 77 4 -10 8 -48 8 -84z m712
51 c-7 -11 -25 -27 -40 -36 -25 -13 -30 -13 -35 0 -3 9 9 23 37 39 46 28 54
27 38 -3z m-137 -14 c-3 -8 11 -26 31 -41 l36 -28 -98 -57 c-54 -31 -111 -65
-128 -75 -24 -16 -23 -13 7 13 32 27 36 35 27 52 -15 28 -51 40 -91 29 -20 -6
-45 -6 -63 -1 -17 5 -23 10 -15 10 8 1 32 6 53 12 35 9 37 12 38 52 l1 42 10
-42 c5 -24 12 -43 16 -43 4 0 43 21 87 45 87 48 97 52 89 32z m912 -19 c10
-31 -39 -73 -149 -129 -55 -27 -105 -49 -112 -49 -8 0 -26 -11 -41 -25 -15
-14 -38 -28 -51 -31 -14 -4 -23 -14 -23 -26 0 -11 -5 -16 -10 -13 -6 4 -17 2
-23 -4 -10 -8 -13 -2 -14 24 -1 39 26 68 71 79 16 4 38 18 48 31 16 20 22 22
37 13 14 -9 29 -5 72 19 30 16 53 35 51 42 -5 22 30 41 62 35 24 -5 28 -3 23
10 -4 9 -9 22 -12 29 -3 8 6 13 30 14 26 1 36 -3 41 -19z m-786 -97 c0 -23
-16 -36 -25 -21 -9 14 1 40 15 40 5 0 10 -9 10 -19z m-305 -51 c-7 -12 -87
-52 -92 -46 -2 2 10 15 27 30 30 25 78 37 65 16z m520 -27 c-3 -16 -11 -30
-16 -31 -20 -8 -39 -34 -39 -56 0 -29 -18 -46 -49 -46 l-24 0 23 25 c18 19 22
32 17 58 -5 31 -2 35 36 54 57 27 60 27 52 -4z m-312 -1 c18 -20 67 -121 67
-139 0 -7 -7 -13 -16 -13 -9 0 -14 -7 -12 -17 2 -10 11 -17 21 -17 9 1 17 -4
17 -12 0 -8 -8 -14 -17 -14 -9 0 -28 -10 -41 -22 l-25 -23 7 29 c6 26 5 28
-14 23 -17 -4 -20 -2 -14 15 6 19 3 20 -26 14 -24 -4 -38 -1 -53 11 -17 16
-20 16 -30 2 -7 -9 -34 -19 -62 -22 -28 -4 -53 -14 -58 -22 -12 -21 -27 -9
-27 21 0 31 -24 27 -28 -4 -4 -25 -17 -29 -26 -7 -3 8 -16 15 -28 15 l-22 0
22 16 c12 8 54 28 92 44 53 22 70 25 70 15 0 -8 9 -19 19 -25 27 -14 31 -13
31 8 0 11 14 25 35 35 32 15 49 47 25 47 -5 0 -10 5 -10 10 0 6 12 10 26 10
14 0 23 4 19 10 -18 30 32 41 58 12z m140 -7 c4 -8 2 -17 -3 -20 -6 -4 -10 3
-10 14 0 25 6 27 13 6z m-478 -41 c-17 -13 -423 -239 -450 -251 -5 -2 5 9 23
25 41 36 347 212 371 212 9 0 25 7 35 15 11 8 25 15 30 15 6 0 2 -8 -9 -16z
m515 -40 c0 -8 -5 -12 -10 -9 -6 4 -8 11 -5 16 9 14 15 11 15 -7z m245 -33 c0
-8 -20 -25 -45 -37 -33 -17 -49 -33 -62 -63 -12 -29 -28 -46 -57 -61 -23 -11
-40 -17 -39 -13 1 5 -12 22 -30 40 -17 17 -32 39 -32 47 0 19 2 19 35 4 27
-12 33 -33 13 -41 -10 -4 -9 -8 2 -16 22 -16 29 -14 41 13 8 17 8 29 0 44 -9
17 -8 22 8 27 11 3 22 12 25 20 3 8 11 15 18 15 7 0 29 9 48 20 39 22 75 22
75 1z m-815 -71 c0 -5 -5 -10 -11 -10 -5 0 -7 5 -4 10 3 6 8 10 11 10 2 0 4
-4 4 -10z m270 -40 c0 -5 -2 -10 -4 -10 -3 0 -8 5 -11 10 -3 6 -1 10 4 10 6 0
11 -4 11 -10z m-240 -20 c0 -5 -9 -6 -20 -3 -11 3 -17 9 -15 14 7 10 35 1 35
-11z m-138 -38 c-3 -26 0 -30 25 -35 18 -3 34 0 45 10 14 13 20 13 33 3 12
-10 18 -8 35 11 10 13 19 19 20 14 0 -6 -5 -16 -11 -22 -8 -8 -6 -14 8 -21 29
-16 122 9 155 42 23 22 32 25 43 16 18 -15 8 -40 -16 -40 -11 0 -31 -7 -44
-16 -13 -8 -63 -22 -110 -30 -56 -10 -93 -22 -105 -34 -24 -24 -72 -38 -78
-22 -2 7 -8 10 -13 6 -5 -3 -9 -1 -9 5 0 5 5 11 12 13 19 7 -2 28 -28 28 -21
0 -24 -4 -24 -40 0 -32 5 -42 26 -53 l26 -14 -28 -18 c-15 -10 -53 -23 -83
-29 -46 -9 -59 -17 -79 -46 -28 -41 -37 -47 -46 -24 -6 16 19 45 58 69 15 9
15 13 -4 50 -11 21 -20 45 -20 52 0 7 -7 13 -15 13 -8 0 -15 7 -15 15 0 14
228 137 241 129 3 -2 4 -16 1 -32z m63 18 c-10 -11 -20 -18 -23 -15 -7 6 18
35 31 35 5 0 2 -9 -8 -20z m-240 -9 c-16 -14 -171 -95 -160 -83 10 10 155 92
165 92 2 0 0 -4 -5 -9z m-196 -57 c-14 -17 -89 -58 -89 -49 0 5 90 65 98 65 3
0 -1 -7 -9 -16z m-316 -93 c3 -14 0 -21 -9 -21 -8 0 -14 -7 -14 -15 0 -25 -29
-29 -53 -8 -32 30 -63 44 -81 37 -9 -3 -16 -2 -16 4 0 15 13 18 95 21 66 2 73
0 78 -18z m-611 -26 c-11 -41 -55 -52 -73 -19 -7 13 -9 27 -6 31 4 3 7 -1 7
-11 0 -23 39 -12 59 15 18 25 22 20 13 -16z m216 -18 c3 -12 -3 -17 -22 -17
-28 0 -29 1 -20 25 8 20 38 15 42 -8z m540 10 c7 -8 6 -19 -3 -36 -12 -24 -12
-24 -17 12 -4 38 2 46 20 24z m162 -19 c-1 -28 -2 -30 -11 -15 -6 10 -8 25 -5
33 9 24 16 16 16 -18z m135 22 c-3 -5 -15 -10 -26 -10 -13 0 -24 -10 -30 -30
-11 -31 -29 -32 -29 -2 0 9 15 25 33 34 36 19 61 23 52 8z m-235 -25 c11 -13
10 -14 -4 -9 -9 3 -16 1 -16 -5 0 -6 -4 -11 -9 -11 -5 0 -7 9 -4 20 6 24 16
25 33 5z m-917 -25 c-6 -22 -23 -38 -23 -21 0 17 12 41 20 41 5 0 6 -9 3 -20z
m87 -29 c0 -5 -16 -11 -35 -13 -32 -4 -43 1 -30 13 8 9 65 9 65 0z m60 -13
c-29 -27 -8 -38 22 -12 21 18 21 18 15 1 -4 -10 -7 -22 -7 -26 0 -4 -19 -6
-42 -5 -24 2 -51 3 -60 3 -34 1 -18 21 16 21 26 0 36 5 41 20 3 11 14 20 23
20 12 0 11 -5 -8 -22z m260 10 c0 -19 -13 -33 -33 -36 -17 -3 -17 -2 -1 22 17
28 34 34 34 14z m-116 -13 c-4 -9 0 -15 10 -15 9 0 16 -4 16 -8 0 -14 -11 -21
-26 -15 -14 5 -19 35 -7 46 10 11 13 8 7 -8z m846 -55 c0 -34 -14 -38 -42 -13
-29 26 -26 31 35 42 4 0 7 -12 7 -29z m-1197 5 c-3 -9 -8 -14 -10 -11 -3 3 -2
9 2 15 9 16 15 13 8 -4z"/>
</g>
</svg>
